<svg width="56" height="56" viewBox="0 0 56 56" fill="none" xmlns="http://www.w3.org/2000/svg">
<rect opacity="0.1" width="56" height="56" rx="28" fill="#E61773"/>
<g clip-path="url(#clip0)">
<path d="M34.1575 23.2658C34.7189 23.875 35.6679 23.9137 36.2771 23.3522C36.8862 22.7908 36.9249 21.8418 36.3635 21.2327C35.8021 20.6235 34.8531 20.5848 34.2439 21.1462C33.6348 21.7077 33.5961 22.6566 34.1575 23.2658Z" stroke="#E61773" stroke-linecap="round" stroke-linejoin="round"/>
<path d="M16.6643 36.5034L26.8378 27.1281V27.1281C25.2024 23.625 26.7166 19.4595 30.2197 17.8242C33.7227 16.1889 37.8883 17.703 39.5236 21.2061C41.1589 24.7092 39.6448 28.8747 36.1417 30.51C34.0832 31.4709 31.6864 31.3732 29.713 30.2478L26.299 33.3933L26.2379 34.8921L24.7392 34.831L24.2192 35.3102L24.1581 36.8089L22.6593 36.7478L22.1394 37.227L22.0782 38.7258L20.5795 38.6647L19.5396 39.6231L16.5421 39.5009L16.6643 36.5034Z" stroke="#E61773" stroke-linecap="round" stroke-linejoin="round"/>
</g>
<defs>
<clipPath id="clip0">
<rect width="24" height="24" transform="matrix(-0.0407454 0.99917 0.99917 0.0407454 17 16)" fill="white"/>
</clipPath>
</defs>
</svg>
