<svg width="15" height="15" opacity="0.5" viewBox="0 0 15 15" fill="none" xmlns="http://www.w3.org/2000/svg">
<path fill-rule="evenodd" clip-rule="evenodd" d="M12.7285 6.75H2.24766V4.47825C2.24766 4.07625 2.57339 3.75 2.97475 3.75H3.74526V5.25H5.24287V3.75H9.73328V5.25H11.2309V3.75H11.9797C12.393 3.75 12.7285 4.086 12.7285 4.5V6.75ZM12.7285 12C12.7285 12.4125 12.3915 12.75 11.9797 12.75H2.99646C2.58312 12.75 2.24766 12.414 2.24766 12V8.25H12.7285V12ZM0.797923 12.5707C0.797923 13.3987 1.51602 14.25 2.3427 14.25H12.8235C13.651 14.25 14.25 13.4843 14.25 12.5707C14.25 12.279 14.226 4.77 14.226 4.281C14.226 2.7195 14.0156 2.25 11.2308 2.25V0.75H9.73323V2.25H5.24281V0.75H3.74521V2.25H2.2476C1.42392 2.25 0.75 2.925 0.75 3.75L0.797923 12.5707Z" fill="#7A8088"/>
</svg>
