<svg xmlns="http://www.w3.org/2000/svg" xmlns:xlink="http://www.w3.org/1999/xlink" viewBox="0 0 512.27 308.28"><defs><style>.cls-1{fill:#252f3e;}.cls-2{fill:#d22833;}.cls-3{fill:#fff;}.cls-4{fill:url(#linear-gradient);}</style><linearGradient id="linear-gradient" x1="13.29" y1="154.14" x2="512.27" y2="154.14" gradientUnits="userSpaceOnUse"><stop offset="0" stop-color="#d22933"/><stop offset="1" stop-color="#fbc11b"/></linearGradient></defs><title>Asset 3</title><g id="Layer_2" data-name="Layer 2"><g id="Layer_1-2" data-name="Layer 1"><path class="cls-1" d="M219.26,162.62V171q0,23.2-15.16,37.65T164.92,223q-25.62,0-42.41-16.32a53.6,53.6,0,0,1-16.82-39.86q0-23.67,16.66-40.09t41.34-16.43a58.68,58.68,0,0,1,28.25,6.87,51.64,51.64,0,0,1,19.89,18.34l-18.6,10.52a29.14,29.14,0,0,0-11.95-10.83,37.74,37.74,0,0,0-17.77-4.18q-15.81,0-26,10.14T127.34,166.8q0,15.33,10.34,25.3t27.41,10q12.65,0,20.93-5.5a27.35,27.35,0,0,0,11.3-15.06H163.85V162.62Z"/><path class="cls-1" d="M266,223q-16.42,0-27.64-7.19a38.6,38.6,0,0,1-15.79-19.58l18.63-10.68q6.48,16.55,25.43,16.56,9.17,0,13.43-3.25a10.39,10.39,0,0,0,3.27-3.88,10,10,0,0,0,1-4.93,10.12,10.12,0,0,0-1.52-4.79,10.29,10.29,0,0,0-3.68-3.5q-5.21-3.18-18.63-6.89a115.8,115.8,0,0,1-12.57-4.33,54.15,54.15,0,0,1-10.24-5.81,23.57,23.57,0,0,1-7.82-9.2,29.67,29.67,0,0,1-2.69-13q0-14.7,10.67-23.42t25.62-8.75a42.43,42.43,0,0,1,39.5,24.27L284.6,145q-6.64-13.94-21.18-13.93-6.78,0-10.65,3a9.46,9.46,0,0,0-2.9,3.45,9.19,9.19,0,0,0-1,4.37,9.63,9.63,0,0,0,1.11,4.67,9.74,9.74,0,0,0,3.23,3.61q4.33,3.17,16.67,6.89c3.36,1,5.91,1.83,7.68,2.39s4.11,1.45,7.12,2.63a45.37,45.37,0,0,1,7,3.35,53.34,53.34,0,0,1,5.6,4.19,21.25,21.25,0,0,1,4.82,5.41,30.57,30.57,0,0,1,4,15.32q0,15-11.1,23.84T266,223"/><path class="cls-1" d="M363.94,155.38a37.22,37.22,0,0,1,18.26,11.37,28.92,28.92,0,0,1,7,19.58q0,16.74-11.45,26.16t-28,9.44a45.9,45.9,0,0,1-23.14-5.81A33.5,33.5,0,0,1,311.83,199l18.64-10.52q4.11,12.54,19.27,12.55,8.37,0,13-4a15.15,15.15,0,0,0,3.56-16.6,13.56,13.56,0,0,0-3.56-4.83q-4.65-4-13-4H345l-8.37-12.38,21.8-27.86H315.14v-20h69.5v17.64Z"/><path class="cls-2" d="M50.16,186.71c-.29-1-.56-2-.83-3a25,25,0,0,0-39.08-11.7,35.16,35.16,0,0,0-6.78,8.1A25.14,25.14,0,0,0,.22,189c-4,25.65,45.65,50.75,66.83,61.47l2.37,1.2c15.17,7.7,33.55,13.28,53.23,17.28-38-19.1-62.31-46.66-72.49-82.22"/><path class="cls-3" d="M31.71,185.82a9.52,9.52,0,1,1-13.31,2,9.51,9.51,0,0,1,13.31-2"/><path class="cls-4" d="M380.43,38.9c-8.05-3.28-31.76-9.63-61.22-14.14h-.08l-.4-.07c-1.91-.29-10.32-17.33-12.2-17.88-5.35-1.56-10.72-4.24-16.1-4.26-20.66-.07-41.32.78-62,1.13a18.71,18.71,0,0,1-7.76-1.5c-11.05-5-18.79-1.36-21.58,10.63-2.38.12-4.84.27-7.31.38-10.43.49-21.22-.57-31.2,1.8-14.69,3.48-28.75,9.52-43.15,14.23-5.55,1.82-7.32,4.57-4.16,9.91a121.58,121.58,0,0,1,7,13.12c2,4.66,5.06,5.44,9.6,4,8.56-2.61,17.07-6,25.85-7.12,14.87-1.86,29.93-2.17,45-3.13.21,2.53.37,3.52.37,4.51,0,9.1-.45,18.35,11,21.84,1,.31,1.6,2.37,2.21,3.7,4.11,8.91,11.12,13,20.83,12.72,10.95-.33,21.91-.63,32.86-1,9.4-.31,17-4.2,23.79-10.77,8.17-7.87,9.25-21.49,9.53-29.85,5.51-2.22,9.23-3.28,13.87-5.15h.05c0,.38,0,.21,0,0A397.39,397.39,0,0,1,362.36,52c3.07.92,5.32,1.59,6.29,1.81,73.73,21.82,123.43,62.93,123.43,110.06,0,70-109.52,125.63-244.63,126.73-63.27.51-142.31-8-183.18-28.77-13.24-6.72-34.4-17.14-51-30.47,44.42,45.77,132.61,77,234.16,77,146.26,0,264.82-64.67,264.82-144.45C512.27,110.5,459.27,63.92,380.43,38.9Zm-252,7.72-5-9.1L157.36,26.3c.06,4.62.1,8,.15,12.07Zm40-10.43c-.23-3.36-.52-7.68-.79-11.65l32.69-.86c.09,4,.17,8.13.25,11.73ZM270,77.87c-12.1,1-24.29,1.07-36.45,1.25-5.14.08-9-2.3-10-6,2.71-5,5.13-8.6,6.69-12.55,2.05-5.15,5.31-8.2,10.89-8.6l49.42-3.56C291.76,65.73,283.34,76.74,270,77.87Zm-19.5-36c-15.07.19-27.54,2.5-30.71,20.37l-6.74,0C212.5,44.85,212,28,211.4,10.44c-.85.35-.09-.29.43-.13,21.78,6.48,43.91,1.06,65.84,1.91,5,.19,10-.36,14.94-.27,7.83.13,12.18,3.87,13.08,11.5.67,5.65.78,11.37,1,15C287.71,39.68,269.12,41.67,250.51,41.9Z"/></g></g></svg>