<svg>
    <defs>
        <symbol id="credit" xmlns="http://www.w3.org/2000/svg" width="24" height="22"  viewBox="0 0 24 22" fill="currentColor">
          <svg width="24" height="22" viewBox="0 0 24 22" fill="none" xmlns="http://www.w3.org/2000/svg">
            <path opacity="0.6" d="M17.75 3C17.8163 3 17.8799 2.97366 17.9268 2.92678C17.9737 2.87989 18 2.8163 18 2.75C18 2.08696 17.7366 1.45107 17.2678 0.982233C16.7989 0.513392 16.163 0.25 15.5 0.25H2.5C1.83696 0.25 1.20107 0.513392 0.732233 0.982233C0.263392 1.45107 0 2.08696 0 2.75C0 2.8163 0.0263392 2.87989 0.0732233 2.92678C0.120107 2.97366 0.183696 3 0.25 3H17.75Z" fill="#29033E"/>
            <path opacity="0.6" d="M17.5 6.75C17.581 6.75 17.662 6.75 17.742 6.75C17.7755 6.75088 17.8089 6.74505 17.8402 6.73285C17.8714 6.72066 17.8999 6.70235 17.924 6.679C17.9481 6.65582 17.9672 6.62802 17.9803 6.59726C17.9933 6.5665 18 6.53342 18 6.5V4.75C18 4.6837 17.9737 4.62011 17.9268 4.57322C17.8799 4.52634 17.8163 4.5 17.75 4.5H0.25C0.183696 4.5 0.120107 4.52634 0.0732233 4.57322C0.0263392 4.62011 0 4.6837 0 4.75L0 10.75C0 11.413 0.263392 12.0489 0.732233 12.5178C1.20107 12.9866 1.83696 13.25 2.5 13.25H9.044C9.09909 13.25 9.15263 13.2318 9.19624 13.1981C9.23985 13.1645 9.27106 13.1173 9.285 13.064C9.76917 11.2545 10.8365 9.6552 12.3216 8.51372C13.8068 7.37225 15.6269 6.75234 17.5 6.75ZM3.5 9H6.5C6.69891 9 6.88968 9.07902 7.03033 9.21967C7.17098 9.36032 7.25 9.55109 7.25 9.75C7.25 9.94891 7.17098 10.1397 7.03033 10.2803C6.88968 10.421 6.69891 10.5 6.5 10.5H3.5C3.30109 10.5 3.11032 10.421 2.96967 10.2803C2.82902 10.1397 2.75 9.94891 2.75 9.75C2.75 9.55109 2.82902 9.36032 2.96967 9.21967C3.11032 9.07902 3.30109 9 3.5 9Z" fill="#29033E"/>
            <path opacity="0.6" d="M17.5 8.75C16.2144 8.75 14.9577 9.13122 13.8888 9.84545C12.8199 10.5597 11.9868 11.5748 11.4948 12.7626C11.0028 13.9503 10.8741 15.2572 11.1249 16.5181C11.3757 17.779 11.9948 18.9372 12.9038 19.8462C13.8128 20.7552 14.971 21.3743 16.2319 21.6251C17.4928 21.8759 18.7997 21.7472 19.9874 21.2552C21.1752 20.7632 22.1903 19.9301 22.9046 18.8612C23.6188 17.7923 24 16.5356 24 15.25C24 13.5261 23.3152 11.8728 22.0962 10.6538C20.8772 9.43482 19.2239 8.75 17.5 8.75ZM20.868 13.613L17.968 17.487C17.839 17.6607 17.6739 17.8043 17.4839 17.9079C17.294 18.0115 17.0839 18.0726 16.868 18.087C16.832 18.087 16.796 18.087 16.759 18.087C16.5624 18.0868 16.3679 18.0477 16.1865 17.972C16.0051 17.8964 15.8404 17.7856 15.702 17.646L14.202 16.146C14.1323 16.0763 14.0771 15.9936 14.0394 15.9026C14.0017 15.8116 13.9823 15.714 13.9823 15.6155C13.9823 15.517 14.0017 15.4194 14.0394 15.3284C14.0771 15.2374 14.1323 15.1547 14.202 15.085C14.2717 15.0153 14.3544 14.9601 14.4454 14.9224C14.5364 14.8847 14.634 14.8653 14.7325 14.8653C14.831 14.8653 14.9286 14.8847 15.0196 14.9224C15.1106 14.9601 15.1933 15.0153 15.263 15.085L16.563 16.385C16.5883 16.4105 16.6187 16.4303 16.6524 16.4429C16.686 16.4555 16.7219 16.4607 16.7577 16.4581C16.7935 16.4556 16.8283 16.4453 16.8598 16.428C16.8913 16.4107 16.9186 16.3868 16.94 16.358L19.672 12.715C19.7311 12.6362 19.8051 12.5698 19.8899 12.5196C19.9746 12.4695 20.0684 12.4365 20.1659 12.4225C20.2634 12.4086 20.3627 12.414 20.4581 12.4385C20.5535 12.4629 20.6432 12.5059 20.722 12.565C20.8008 12.6241 20.8672 12.6981 20.9174 12.7829C20.9675 12.8676 21.0005 12.9614 21.0145 13.0589C21.0284 13.1564 21.023 13.2557 20.9985 13.3511C20.9741 13.4465 20.9311 13.5362 20.872 13.615L20.868 13.613Z" fill="#29033E"/>
          </svg>
        </symbol>

        <symbol id="order" xmlns="http://www.w3.org/2000/svg" width="24" height="24"  viewBox="0 0 18 18" fill="currentColor">
            <svg width="18" height="18" viewBox="0 0 18 18" xmlns="http://www.w3.org/2000/svg">
            <path opacity="0.6" d="M15.075 17.9062C15.4738 17.9062 15.868 17.8214 16.2315 17.6574C16.595 17.4935 16.9195 17.254 17.1834 16.9551C17.4473 16.6561 17.6446 16.3045 17.7623 15.9234C17.8799 15.5424 17.9152 15.1407 17.8657 14.745L16.6837 5.274V5.26875C16.6793 5.23722 16.6723 5.20611 16.6627 5.17575V5.16825L16.659 5.1555L15.8752 2.955C15.8665 2.93159 15.8562 2.90879 15.8445 2.88675C15.7399 2.67111 15.5775 2.48869 15.3755 2.35974C15.1734 2.23078 14.9396 2.16035 14.7 2.15625H13.95C13.8008 2.15625 13.6577 2.21551 13.5522 2.321C13.4467 2.42649 13.3875 2.56957 13.3875 2.71875C13.3875 2.86793 13.4467 3.01101 13.5522 3.1165C13.6577 3.22199 13.8008 3.28125 13.95 3.28125H14.7C14.7274 3.28566 14.7534 3.29652 14.7759 3.31295C14.7983 3.32938 14.8165 3.35091 14.829 3.37575L15.2392 4.53075C15.2492 4.55908 15.2522 4.58937 15.248 4.61909C15.2438 4.64882 15.2326 4.67712 15.2153 4.70163C15.198 4.72615 15.1751 4.74616 15.1484 4.76001C15.1218 4.77386 15.0922 4.78115 15.0622 4.78125H13.014C12.9643 4.78125 12.9166 4.7615 12.8814 4.72633C12.8462 4.69117 12.8265 4.64348 12.8265 4.59375V3.84375C12.8265 2.84919 12.4314 1.89536 11.7281 1.1921C11.0249 0.488838 10.071 0.09375 9.07648 0.09375C8.08192 0.09375 7.12809 0.488838 6.42483 1.1921C5.72157 1.89536 5.32648 2.84919 5.32648 3.84375V4.59375C5.32648 4.64348 5.30673 4.69117 5.27156 4.72633C5.2364 4.7615 5.18871 4.78125 5.13898 4.78125H3.00748C2.97652 4.78132 2.94602 4.77373 2.91871 4.75914C2.89139 4.74455 2.86812 4.72343 2.85096 4.69765C2.8338 4.67188 2.8233 4.64226 2.82038 4.61143C2.81746 4.58061 2.82222 4.54954 2.83423 4.521L3.30898 3.4005C3.32064 3.37015 3.33984 3.34327 3.36477 3.32241C3.38971 3.30154 3.41955 3.28738 3.45148 3.28125H4.20148C4.35066 3.28125 4.49374 3.22199 4.59923 3.1165C4.70472 3.01101 4.76398 2.86793 4.76398 2.71875C4.76398 2.56957 4.70472 2.42649 4.59923 2.321C4.49374 2.21551 4.35066 2.15625 4.20148 2.15625H3.45148C3.20538 2.16276 2.96605 2.23828 2.76078 2.3742C2.55551 2.51011 2.39255 2.70097 2.29048 2.925L1.35823 5.1225V5.1285C1.35298 5.1405 1.34848 5.15325 1.34398 5.16675V5.17725C1.33429 5.2083 1.32751 5.24019 1.32373 5.2725L0.132729 14.745C0.0832647 15.1408 0.118569 15.5427 0.236297 15.9238C0.354026 16.3049 0.551486 16.6567 0.815568 16.9557C1.07965 17.2546 1.40431 17.494 1.768 17.6579C2.13168 17.8218 2.52607 17.9065 2.92498 17.9062H15.075ZM6.54598 11.0715C6.5698 11.0476 6.59809 11.0287 6.62924 11.0158C6.66038 11.0029 6.69377 10.9962 6.72748 10.9962C6.76119 10.9962 6.79458 11.0029 6.82572 11.0158C6.85686 11.0287 6.88516 11.0476 6.90898 11.0715L8.04073 12.1545C8.07587 12.1887 8.12296 12.2078 8.17198 12.2078C8.221 12.2078 8.26809 12.1887 8.30323 12.1545L11.661 8.7975C11.6848 8.77364 11.7131 8.75472 11.7442 8.74181C11.7754 8.72889 11.8088 8.72225 11.8425 8.72225C11.8762 8.72225 11.9096 8.72889 11.9407 8.74181C11.9719 8.75472 12.0002 8.77364 12.024 8.7975L12.9465 9.71925C12.9945 9.76746 13.0214 9.83272 13.0214 9.90075C13.0214 9.96878 12.9945 10.034 12.9465 10.0822L8.35498 14.6708C8.30677 14.7187 8.24151 14.7457 8.17348 14.7457C8.10545 14.7457 8.04019 14.7187 7.99198 14.6708L5.62498 12.357C5.57707 12.3084 5.55021 12.243 5.55021 12.1747C5.55021 12.1065 5.57707 12.0411 5.62498 11.9925L6.54598 11.0715ZM6.82498 3.84375C6.82498 3.24701 7.06203 2.67472 7.48399 2.25276C7.90595 1.8308 8.47824 1.59375 9.07498 1.59375C9.67172 1.59375 10.244 1.8308 10.666 2.25276C11.0879 2.67472 11.325 3.24701 11.325 3.84375V4.59375C11.325 4.64348 11.3052 4.69117 11.2701 4.72633C11.2349 4.7615 11.1872 4.78125 11.1375 4.78125H7.01248C6.96275 4.78125 6.91506 4.7615 6.8799 4.72633C6.84473 4.69117 6.82498 4.64348 6.82498 4.59375V3.84375Z" />
            </svg>
         </symbol>

        <symbol id="payment" xmlns="http://www.w3.org/2000/svg" width="24" height="24"  viewBox="0 0 18 18" fill="currentColor">
            <svg width="18" height="18" viewBox="0 0 18 18" xmlns="http://www.w3.org/2000/svg">
            <path opacity="0.6" d="M0.375 13.5C0.375 13.8978 0.533035 14.2794 0.81434 14.5607C1.09564 14.842 1.47718 15 1.875 15H16.125C16.5228 15 16.9044 14.842 17.1857 14.5607C17.467 14.2794 17.625 13.8978 17.625 13.5V7.125C17.625 7.07527 17.6052 7.02758 17.5701 6.99242C17.5349 6.95725 17.4872 6.9375 17.4375 6.9375H0.5625C0.512772 6.9375 0.465081 6.95725 0.429917 6.99242C0.394754 7.02758 0.375 7.07527 0.375 7.125V13.5ZM12.75 11.8125H15C15.1492 11.8125 15.2923 11.8718 15.3977 11.9773C15.5032 12.0827 15.5625 12.2258 15.5625 12.375C15.5625 12.5242 15.5032 12.6673 15.3977 12.7727C15.2923 12.8782 15.1492 12.9375 15 12.9375H12.75C12.6008 12.9375 12.4577 12.8782 12.3523 12.7727C12.2468 12.6673 12.1875 12.5242 12.1875 12.375C12.1875 12.2258 12.2468 12.0827 12.3523 11.9773C12.4577 11.8718 12.6008 11.8125 12.75 11.8125ZM3.375 8.8125H9.375C9.52418 8.8125 9.66726 8.87176 9.77275 8.97725C9.87824 9.08274 9.9375 9.22582 9.9375 9.375C9.9375 9.52418 9.87824 9.66726 9.77275 9.77275C9.66726 9.87824 9.52418 9.9375 9.375 9.9375H3.375C3.22582 9.9375 3.08274 9.87824 2.97725 9.77275C2.87176 9.66726 2.8125 9.52418 2.8125 9.375C2.8125 9.22582 2.87176 9.08274 2.97725 8.97725C3.08274 8.87176 3.22582 8.8125 3.375 8.8125ZM3.375 11.8125H5.625C5.77418 11.8125 5.91726 11.8718 6.02275 11.9773C6.12824 12.0827 6.1875 12.2258 6.1875 12.375C6.1875 12.5242 6.12824 12.6673 6.02275 12.7727C5.91726 12.8782 5.77418 12.9375 5.625 12.9375H3.375C3.22582 12.9375 3.08274 12.8782 2.97725 12.7727C2.87176 12.6673 2.8125 12.5242 2.8125 12.375C2.8125 12.2258 2.87176 12.0827 2.97725 11.9773C3.08274 11.8718 3.22582 11.8125 3.375 11.8125Z" />
            <path opacity="0.3" d="M17.625 4.5C17.625 4.10218 17.467 3.72064 17.1857 3.43934C16.9044 3.15804 16.5228 3 16.125 3H1.875C1.47718 3 1.09564 3.15804 0.81434 3.43934C0.533035 3.72064 0.375 4.10218 0.375 4.5V5.625C0.375 5.67473 0.394754 5.72242 0.429917 5.75758C0.465081 5.79275 0.512772 5.8125 0.5625 5.8125H17.4375C17.4872 5.8125 17.5349 5.79275 17.5701 5.75758C17.6052 5.72242 17.625 5.67473 17.625 5.625V4.5Z" />
          </svg>
        </symbol>

        <symbol id="product-stock" xmlns="http://www.w3.org/2000/svg" width="24" height="24"  viewBox="0 0 18 18" fill="currentColor">
          <svg width="20" height="18" viewBox="0 0 20 18" xmlns="http://www.w3.org/2000/svg">
          <g clip-path="url(#clip0)">
          <path opacity="0.6" d="M9.008 16.36L9.904 11.56C10.064 10.712 10.664 10.016 11.48 9.736C11.552 9.712 11.608 9.648 11.616 9.568C11.704 8.808 12.104 8.128 12.72 7.672C12.768 7.632 12.8 7.576 12.8 7.512V6.456C12.784 5.744 12.192 5.184 11.48 5.2H11C10.888 5.2 10.8 5.288 10.8 5.4V6.4C10.8 6.728 10.528 7 10.2 7C9.872 7 9.6 6.728 9.6 6.4V3.2C9.6 1.432 8.168 0 6.4 0C4.632 0 3.2 1.432 3.2 3.2V6.4C3.2 6.728 2.928 7 2.6 7C2.272 7 2 6.728 2 6.4V5.4C2 5.288 1.912 5.2 1.8 5.2H1.32C0.608 5.184 0.016 5.744 0 6.456V16.744C0.016 17.456 0.616 18.016 1.328 18H8.968C9.08 18 9.168 17.912 9.168 17.8C9.168 17.776 9.16 17.744 9.152 17.72C8.968 17.296 8.92 16.816 9.008 16.36ZM4.8 3.2C4.8 2.32 5.52 1.6 6.4 1.6C7.28 1.6 8 2.32 8 3.2V5C8 5.112 7.912 5.2 7.8 5.2H5C4.888 5.2 4.8 5.112 4.8 5V3.2Z" />
          <path opacity="0.6" d="M18.12 11.7759C18.016 11.2079 17.52 10.7999 16.936 10.7999H16.8C16.688 10.7999 16.6 10.7119 16.6 10.5999V9.85593C16.544 8.80793 15.648 7.99993 14.6 8.04793C13.552 7.99993 12.656 8.80793 12.6 9.85593V10.5999C12.6 10.7119 12.512 10.7999 12.4 10.7999H12.264C11.688 10.7999 11.192 11.2079 11.088 11.7759L10.192 16.5759C10.072 17.2239 10.496 17.8559 11.152 17.9759C11.224 17.9919 11.296 17.9999 11.376 17.9999H17.848C18.512 17.9999 19.048 17.4639 19.048 16.7999C19.048 16.7279 19.04 16.6479 19.024 16.5759L18.12 11.7759ZM14.6 9.24793C15.032 9.24793 15.4 9.52793 15.4 9.85593V10.5999C15.4 10.7119 15.312 10.7999 15.2 10.7999H14C13.888 10.7999 13.8 10.7119 13.8 10.5999V9.85593C13.8 9.52793 14.168 9.24793 14.6 9.24793Z" />
          </g>
          <defs>
          <clipPath id="clip0">
          <rect width="19.04" height="18" fill="white"/>
          </clipPath>
          </defs>
          </svg>
        </symbol>

        <symbol id="users" xmlns="http://www.w3.org/2000/svg" width="24" height="24"  viewBox="0 0 18 18" fill="currentColor">
          <svg width="18" height="18" viewBox="0 0 18 18" xmlns="http://www.w3.org/2000/svg">
          <g clip-path="url(#clip0)">
          <path opacity="0.6" d="M11.9592 7.85737C12.1504 7.77498 12.2422 7.55775 12.158 7.36299C12.1351 7.31056 12.0969 7.25812 12.051 7.22067C11.7145 6.94352 11.3399 6.7188 10.9422 6.54651C10.8428 6.50906 10.8046 6.3967 10.8428 6.29932C10.8581 6.26187 10.8811 6.2394 10.9117 6.21692C12.5098 5.1982 12.9686 3.10082 11.9286 1.53528C10.8887 -0.0302667 8.74768 -0.479705 7.14955 0.539022C5.55142 1.55775 5.10027 3.65513 6.1402 5.22816C6.40019 5.62516 6.75193 5.96224 7.1572 6.22442C7.24895 6.28434 7.27189 6.3967 7.21072 6.48659C7.18778 6.50906 7.16484 6.53153 7.12661 6.54651C6.72134 6.72629 6.33901 6.9585 5.99492 7.24314C5.83434 7.37797 5.8114 7.61018 5.94904 7.76749C5.98727 7.81243 6.03315 7.84239 6.08668 7.86486C6.79016 8.17198 7.40953 8.65138 7.87597 9.25812C7.94479 9.3555 8.05949 9.40794 8.18183 9.40794H9.81055C9.9329 9.40794 10.0476 9.3555 10.1164 9.25812C10.6058 8.65138 11.2328 8.16449 11.9592 7.85737ZM7.22601 2.7937C7.26425 2.69633 7.3713 2.64389 7.4707 2.68134C7.47835 2.68134 7.49364 2.68883 7.50894 2.69633C8.22771 3.16074 9.07648 3.40045 9.9329 3.40045C10.2005 3.40045 10.4605 3.37048 10.7281 3.32554C10.8352 3.30307 10.9346 3.37048 10.9499 3.47535C10.9499 3.49033 10.9499 3.50531 10.9499 3.5203C10.8887 4.56149 9.98642 5.3555 8.92355 5.29558C7.89891 5.24314 7.10367 4.40419 7.11132 3.40045C7.11132 3.1982 7.14955 2.98846 7.22601 2.7937Z" />
          <path opacity="0.6" d="M7.67715 11.9926C7.6848 10.1274 6.14784 8.59932 4.24385 8.59182C2.33985 8.58433 0.779957 10.09 0.77231 11.9551C0.764664 13.1087 1.35345 14.1798 2.33985 14.8091C2.43161 14.869 2.45455 14.9813 2.39338 15.0712C2.37044 15.1012 2.3475 15.1237 2.30927 15.1386C2.0187 15.266 1.73578 15.4233 1.47579 15.6031C0.887008 16.015 0.397629 16.5544 0.0611802 17.1761C-0.0841044 17.4532 0.0229474 17.7903 0.298223 17.9326C0.382336 17.9776 0.474094 18.0001 0.565853 18.0001H7.86832C8.18183 18.0001 8.44181 17.7454 8.44181 17.4383C8.44181 17.3484 8.41887 17.2585 8.37299 17.1761C8.02889 16.5544 7.54716 16.015 6.95838 15.6031C6.69839 15.4233 6.42312 15.266 6.1249 15.1386C6.0255 15.0937 5.98726 14.9888 6.0255 14.8914C6.04079 14.8615 6.06373 14.8315 6.09432 14.8091C7.08072 14.1873 7.66951 13.1311 7.67715 11.9926ZM2.40867 11.3783C2.44691 11.281 2.55396 11.2285 2.65336 11.266C2.66866 11.2735 2.68395 11.281 2.6916 11.2885C3.41037 11.7529 4.25914 11.9926 5.11556 11.9926C5.38318 11.9926 5.64317 11.9626 5.9108 11.9177C5.97197 11.9102 6.0255 11.9252 6.07138 11.9626C6.11725 12.0001 6.14019 12.0525 6.14019 12.1124C6.07902 13.1536 5.17673 13.9476 4.11386 13.8877C3.08922 13.8278 2.28633 12.9888 2.29398 11.9851C2.30162 11.7828 2.33221 11.5731 2.40867 11.3783Z" />
          <path opacity="0.6" d="M16.5166 15.6027C16.2566 15.423 15.9813 15.2656 15.6831 15.1383C15.5837 15.0934 15.5454 14.9885 15.5837 14.8911C15.599 14.8612 15.6219 14.8312 15.6525 14.8087C17.2506 13.79 17.7094 11.6926 16.6695 10.1271C15.6296 8.56153 13.4885 8.11209 11.8904 9.13082C10.2923 10.1495 9.83347 12.2469 10.8734 13.8125C11.141 14.2095 11.4851 14.5465 11.8904 14.8087C11.9822 14.8686 12.0051 14.981 11.9439 15.0709C11.921 15.1009 11.898 15.1233 11.8598 15.1383C11.5692 15.2656 11.2863 15.423 11.0263 15.6027C10.4375 16.0147 9.94817 16.554 9.61172 17.1758C9.46643 17.4529 9.57348 17.79 9.84876 17.9323C9.93287 17.9773 10.0246 17.9997 10.1164 17.9997H17.4189C17.7324 17.9997 17.9923 17.7451 17.9923 17.4379C17.9923 17.348 17.9694 17.2582 17.9235 17.1758C17.5947 16.5465 17.1053 16.0147 16.5166 15.6027ZM11.9669 11.378C12.0051 11.2806 12.1121 11.2282 12.2115 11.2657C12.2268 11.2731 12.2421 11.2806 12.2498 11.2881C12.9686 11.7525 13.8173 11.9922 14.6737 11.9922C14.9414 11.9922 15.2014 11.9623 15.469 11.9173C15.5302 11.9098 15.5837 11.9248 15.6296 11.9623C15.6754 11.9997 15.6984 12.0522 15.6907 12.1121C15.6296 13.1533 14.7273 13.9473 13.6644 13.8874C12.6398 13.8349 11.8445 12.996 11.8522 11.9922C11.8598 11.7825 11.8904 11.5728 11.9669 11.378Z" />
          </g>
          <defs>
          <clipPath id="clip0">
          <rect width="18" height="18" fill="white"/>
          </clipPath>
          </defs>
          </svg>
        </symbol>

        <symbol id="gas-station" xmlns="http://www.w3.org/2000/svg" width="24" height="24"  viewBox="0 0 18 18" fill="currentColor">
          <svg width="18" height="18" viewBox="0 0 18 18" xmlns="http://www.w3.org/2000/svg">
          <path opacity="0.6" d="M17.7615 6.48375C17.6896 6.4164 17.6051 6.36387 17.5128 6.32919C17.4206 6.29451 17.3224 6.27834 17.2239 6.28161C17.1255 6.28489 17.0286 6.30754 16.9389 6.34827C16.8491 6.389 16.7683 6.44702 16.701 6.519C15.3225 7.99275 14.625 9.048 14.625 9.65625V15.2812C14.625 15.4802 14.546 15.6709 14.4053 15.8116C14.2647 15.9522 14.0739 16.0312 13.875 16.0312C13.6761 16.0312 13.4853 15.9522 13.3447 15.8116C13.204 15.6709 13.125 15.4802 13.125 15.2812V5.15625C13.125 4.65897 12.9275 4.18206 12.5758 3.83042C12.2242 3.47879 11.7473 3.28125 11.25 3.28125H11.064C11.0143 3.28125 10.9666 3.2615 10.9314 3.22633C10.8963 3.19117 10.8765 3.14348 10.8765 3.09375V1.78125C10.8761 1.43328 10.7377 1.09967 10.4916 0.853611C10.2456 0.607555 9.91197 0.469147 9.564 0.46875H1.314C0.965826 0.468948 0.631947 0.607245 0.38561 0.8533C0.139274 1.09936 0.000595792 1.43308 0 1.78125L0 16.0312C0.000594895 16.3792 0.139067 16.7127 0.385079 16.9587C0.631092 17.2047 0.964586 17.3432 1.3125 17.3438H9.5625C9.91047 17.3434 10.2441 17.2049 10.4901 16.9589C10.7362 16.7128 10.8746 16.3792 10.875 16.0312V4.96875C10.875 4.91902 10.8948 4.87133 10.9299 4.83617C10.9651 4.801 11.0128 4.78125 11.0625 4.78125H11.25C11.3495 4.78125 11.4448 4.82076 11.5152 4.89109C11.5855 4.96141 11.625 5.05679 11.625 5.15625V15.2812C11.625 15.878 11.8621 16.4503 12.284 16.8722C12.706 17.2942 13.2783 17.5312 13.875 17.5312C14.4717 17.5312 15.044 17.2942 15.466 16.8722C15.8879 16.4503 16.125 15.878 16.125 15.2812V13.611C16.1248 13.5761 16.1345 13.5419 16.1527 13.5122C16.171 13.4825 16.1973 13.4585 16.2285 13.443L17.0032 13.0553C17.1904 12.9623 17.3478 12.8189 17.4577 12.6411C17.5676 12.4634 17.6255 12.2585 17.625 12.0495V11.1562C17.625 10.8579 17.5065 10.5717 17.2955 10.3608C17.0845 10.1498 16.7984 10.0312 16.5 10.0312H16.305C16.2555 10.0313 16.2081 10.0117 16.1729 9.97686C16.1378 9.94202 16.1179 9.89472 16.1175 9.84525V9.72825C16.5783 8.92886 17.1433 8.19419 17.7975 7.5435C17.9332 7.39817 18.0056 7.2049 17.9989 7.00617C17.9921 6.80745 17.9068 6.61954 17.7615 6.48375ZM8.06175 11.7188C8.06175 11.8182 8.02224 11.9136 7.95191 11.9839C7.88159 12.0542 7.78621 12.0938 7.68675 12.0938H6.93675C6.83729 12.0938 6.74191 12.0542 6.67158 11.9839C6.60126 11.9136 6.56175 11.8182 6.56175 11.7188V9.46875C6.56175 9.36929 6.60126 9.27391 6.67158 9.20358C6.74191 9.13326 6.83729 9.09375 6.93675 9.09375H7.68675C7.78621 9.09375 7.88159 9.13326 7.95191 9.20358C8.02224 9.27391 8.06175 9.36929 8.06175 9.46875V11.7188ZM8.81175 5.15625C8.81175 5.25571 8.77224 5.35109 8.70191 5.42141C8.63159 5.49174 8.53621 5.53125 8.43675 5.53125H2.43675C2.33729 5.53125 2.24191 5.49174 2.17158 5.42141C2.10126 5.35109 2.06175 5.25571 2.06175 5.15625V2.90625C2.06175 2.80679 2.10126 2.71141 2.17158 2.64109C2.24191 2.57076 2.33729 2.53125 2.43675 2.53125H8.43675C8.53621 2.53125 8.63159 2.57076 8.70191 2.64109C8.77224 2.71141 8.81175 2.80679 8.81175 2.90625V5.15625Z" />
          </svg>
        </symbol>

        <symbol id="dashboard" xmlns="http://www.w3.org/2000/svg" width="24" height="24"  viewBox="0 0 18 18" fill="currentColor">
          <svg width="18" height="18" viewBox="0 0 18 18" xmlns="http://www.w3.org/2000/svg">
          <g clip-path="url(#clip0)">
          <path opacity="0.3" d="M1.98225 7.94268L8.769 2.33043C8.83397 2.27665 8.91566 2.24722 9 2.24722C9.08434 2.24722 9.16603 2.27665 9.231 2.33043L16.0177 7.94268C16.1295 8.03554 16.2588 8.10501 16.3979 8.147C16.5371 8.18898 16.6832 8.20261 16.8277 8.18708C16.9722 8.17156 17.1121 8.12719 17.2391 8.05661C17.3662 7.98603 17.4777 7.89067 17.5672 7.77618C17.7513 7.54286 17.8372 7.24699 17.8067 6.95139C17.7761 6.65578 17.6316 6.38371 17.4037 6.19293L10.617 0.580678C10.1617 0.205295 9.59006 0 9 0C8.40994 0 7.83826 0.205295 7.383 0.580678L0.599999 6.19293C0.372144 6.38371 0.227613 6.65578 0.197086 6.95139C0.166559 7.24699 0.25244 7.54286 0.436499 7.77618C0.526104 7.88994 0.637528 7.98467 0.764234 8.05479C0.890939 8.12491 1.03037 8.16902 1.17436 8.18453C1.31834 8.20004 1.46397 8.18663 1.6027 8.1451C1.74143 8.10357 1.87047 8.03475 1.98225 7.94268Z" />
          <path opacity="0.6" d="M16.7108 16.4998V11.2498C16.7045 11.0242 16.6526 10.8022 16.5581 10.5972C16.4636 10.3923 16.3285 10.2086 16.161 10.0573L9.936 4.80732C9.67455 4.58618 9.34319 4.46484 9.00075 4.46484C8.65832 4.46484 8.32696 4.58618 8.0655 4.80732L1.8405 10.0618C1.67322 10.2124 1.53814 10.3953 1.4434 10.5995C1.34867 10.8036 1.29623 11.0249 1.28925 11.2498V16.4998C1.28545 16.8934 1.43795 17.2723 1.71326 17.5535C1.98858 17.8348 2.36423 17.9953 2.75775 17.9998H6.79725C6.99405 17.9976 7.18193 17.9174 7.31961 17.7768C7.45729 17.6362 7.5335 17.4466 7.5315 17.2498V13.1248C7.5297 12.9281 7.60598 12.7387 7.74362 12.5981C7.88126 12.4575 8.06902 12.3772 8.26575 12.3748H9.73425C9.93099 12.3772 10.1188 12.4575 10.2564 12.5981C10.394 12.7387 10.4703 12.9281 10.4685 13.1248V17.2498C10.4665 17.4466 10.5427 17.6362 10.6804 17.7768C10.8181 17.9174 11.006 17.9976 11.2028 17.9998H15.2423C15.6358 17.9953 16.0114 17.8348 16.2867 17.5535C16.5621 17.2723 16.7146 16.8934 16.7108 16.4998Z" />
          </g>
          <defs>
          <clipPath id="clip0">
          <rect width="18" height="18" fill="white"/>
          </clipPath>
          </defs>
          </svg>
        </symbol>

        <symbol id="home" xmlns="http://www.w3.org/2000/svg" width="24" height="24"  viewBox="0 0 18 18" fill="currentColor">
          <svg width="18" height="18" viewBox="0 0 18 18" xmlns="http://www.w3.org/2000/svg">
          <g clip-path="url(#clip0)">
          <path opacity="0.3" d="M1.98225 7.94268L8.769 2.33043C8.83397 2.27665 8.91566 2.24722 9 2.24722C9.08434 2.24722 9.16603 2.27665 9.231 2.33043L16.0177 7.94268C16.1295 8.03554 16.2588 8.10501 16.3979 8.147C16.5371 8.18898 16.6832 8.20261 16.8277 8.18708C16.9722 8.17156 17.1121 8.12719 17.2391 8.05661C17.3662 7.98603 17.4777 7.89067 17.5672 7.77618C17.7513 7.54286 17.8372 7.24699 17.8067 6.95139C17.7761 6.65578 17.6316 6.38371 17.4037 6.19293L10.617 0.580678C10.1617 0.205295 9.59006 0 9 0C8.40994 0 7.83826 0.205295 7.383 0.580678L0.599999 6.19293C0.372144 6.38371 0.227613 6.65578 0.197086 6.95139C0.166559 7.24699 0.25244 7.54286 0.436499 7.77618C0.526104 7.88994 0.637528 7.98467 0.764234 8.05479C0.890939 8.12491 1.03037 8.16902 1.17436 8.18453C1.31834 8.20004 1.46397 8.18663 1.6027 8.1451C1.74143 8.10357 1.87047 8.03475 1.98225 7.94268Z" />
          <path opacity="0.6" d="M16.7108 16.4998V11.2498C16.7045 11.0242 16.6526 10.8022 16.5581 10.5972C16.4636 10.3923 16.3285 10.2086 16.161 10.0573L9.936 4.80732C9.67455 4.58618 9.34319 4.46484 9.00075 4.46484C8.65832 4.46484 8.32696 4.58618 8.0655 4.80732L1.8405 10.0618C1.67322 10.2124 1.53814 10.3953 1.4434 10.5995C1.34867 10.8036 1.29623 11.0249 1.28925 11.2498V16.4998C1.28545 16.8934 1.43795 17.2723 1.71326 17.5535C1.98858 17.8348 2.36423 17.9953 2.75775 17.9998H6.79725C6.99405 17.9976 7.18193 17.9174 7.31961 17.7768C7.45729 17.6362 7.5335 17.4466 7.5315 17.2498V13.1248C7.5297 12.9281 7.60598 12.7387 7.74362 12.5981C7.88126 12.4575 8.06902 12.3772 8.26575 12.3748H9.73425C9.93099 12.3772 10.1188 12.4575 10.2564 12.5981C10.394 12.7387 10.4703 12.9281 10.4685 13.1248V17.2498C10.4665 17.4466 10.5427 17.6362 10.6804 17.7768C10.8181 17.9174 11.006 17.9976 11.2028 17.9998H15.2423C15.6358 17.9953 16.0114 17.8348 16.2867 17.5535C16.5621 17.2723 16.7146 16.8934 16.7108 16.4998Z" />
          </g>
          <defs>
          <clipPath id="clip0">
          <rect width="18" height="18" fill="white"/>
          </clipPath>
          </defs>
          </svg>
        </symbol>

        <symbol id="ellipse" xmlns="http://www.w3.org/2000/svg" width="24" height="24"  viewBox="0 0 18 18" fill="currentColor">
            <svg width="10" height="10" viewBox="0 0 10 10" xmlns="http://www.w3.org/2000/svg">
              <circle cx="5" cy="5" r="3.5" fill="white" stroke-width="3"/>
            </svg>
        </symbol>

        <symbol id="go-back" xmlns="http://www.w3.org/2000/svg" width="24" height="20"  viewBox="0 0 18 18" fill="currentColor">
            <svg xmlns="http://www.w3.org/2000/svg" height="18" viewBox="0 0 18 18" width="18"><path d="M0 0h24v24H0z" fill="none"/><path d="M21 11H6.83l3.58-3.59L9 6l-6 6 6 6 1.41-1.41L6.83 13H21z"/></svg>
        </symbol>

        <symbol id="add-user" xmlns="http://www.w3.org/2000/svg" width="18" height="18"  viewBox="0 0 18 18" fill="currentColor">
           <svg xmlns="http://www.w3.org/2000/svg" height="18" viewBox="0 0 24 24" width="18"><path d="M0 0h24v24H0z" fill="none"/><path d="M15 12c2.21 0 4-1.79 4-4s-1.79-4-4-4-4 1.79-4 4 1.79 4 4 4zm-9-2V7H4v3H1v2h3v3h2v-3h3v-2H6zm9 4c-2.67 0-8 1.34-8 4v2h16v-2c0-2.66-5.33-4-8-4z"/></svg>
        </symbol>

        <symbol id="track-order" xmlns="http://www.w3.org/2000/svg" width="20" height="20"  viewBox="0 0 20 20" fill="currentColor">
           <svg xmlns="http://www.w3.org/2000/svg" height="22" viewBox="0 0 24 24" width="22">
           <path d="M0 0h24v24H0V0z" fill="none"/>
           <path d="M19.07 4.93l-1.41 1.41C19.1 7.79 20 9.79 20 12c0 4.42-3.58 8-8 8s-8-3.58-8-8c0-4.08 3.05-7.44 7-7.93v2.02C8.16 6.57 6 9.03 6 12c0 3.31 2.69 6 6 6s6-2.69 6-6c0-1.66-.67-3.16-1.76-4.24l-1.41 1.41C15.55 9.9 16 10.9 16 12c0 2.21-1.79 4-4 4s-4-1.79-4-4c0-1.86 1.28-3.41 3-3.86v2.14c-.6.35-1 .98-1 1.72 0 1.1.9 2 2 2s2-.9 2-2c0-.74-.4-1.38-1-1.72V2h-1C6.48 2 2 6.48 2 12s4.48 10 10 10 10-4.48 10-10c0-2.76-1.12-5.26-2.93-7.07z"/></svg>
        </symbol>
    </defs>    
</svg>
