<svg xmlns="http://www.w3.org/2000/svg">
    <symbol id="facebook-logo" viewBox="0 0 24 24" xmlns="http://www.w3.org/2000/svg">
        <path fill-rule="evenodd" clip-rule="evenodd" d="M1.82217 7.24685V13.1135H5.2723V7.27471H7.62754L8.19777 4.84052H5.29707V3.05504C5.29707 2.80834 5.4561 2.47886 5.93914 2.47886H7.61565V0H4.48507C3.40455 0 1.81028 1.1003 1.81028 2.27027V4.77126H0V7.2366L1.82217 7.24685Z" fill="white"/>
    </symbol>

    <symbol id="twitter-logo" viewBox="0 0 24 24" xmlns="http://www.w3.org/2000/svg">
        <path fill-rule="evenodd" clip-rule="evenodd" d="M14.6771 1.60609C14.1563 1.8139 13.5966 1.95442 13.0085 2.01772C13.6085 1.69407 14.0691 1.18213 14.286 0.571853C13.7249 0.871218 13.1027 1.08858 12.4412 1.20601C11.9115 0.698048 11.1562 0.380371 10.3208 0.380371C8.7163 0.380371 7.41581 1.55076 7.41581 2.99384C7.41581 3.19886 7.44103 3.3983 7.49103 3.58978C5.07634 3.48031 2.936 2.4401 1.50321 0.858877C1.2532 1.24503 1.10983 1.69407 1.10983 2.17298C1.10983 3.07983 1.62268 3.87959 2.40191 4.34815C1.92579 4.33461 1.47799 4.21718 1.08638 4.02131C1.08594 4.03206 1.08594 4.04321 1.08594 4.05396C1.08594 5.32029 2.0873 6.37682 3.41655 6.61687C3.17274 6.67658 2.91609 6.70843 2.65104 6.70843C2.46386 6.70843 2.282 6.69211 2.10456 6.66185C2.47404 7.70008 3.54709 8.45566 4.81837 8.47675C3.82409 9.17779 2.57139 9.59539 1.21028 9.59539C0.975757 9.59539 0.744776 9.58345 0.517334 9.55877C1.80278 10.3004 3.32982 10.7331 4.97015 10.7331C10.3141 10.7331 13.2359 6.75063 13.2359 3.29719C13.2359 3.18373 13.2333 3.07107 13.2275 2.95881C13.7952 2.59057 14.2877 2.12998 14.6771 1.60609Z" fill="white"/>
    </symbol>

    <symbol id="instagram-logo" viewBox="0 0 24 24" xmlns="http://www.w3.org/2000/svg">
        <path fill-rule="evenodd" clip-rule="evenodd" d="M7.00286 0C5.10274 0 4.8644 0.00778614 4.11791 0.0393405C3.37317 0.0713046 2.86457 0.18236 2.41983 0.344229C1.95934 0.511836 1.56925 0.735995 1.18048 1.10071C0.791273 1.46502 0.552063 1.83056 0.373202 2.26208C0.200026 2.67884 0.0819518 3.15544 0.0478414 3.85332C0.013731 4.55284 0.00585938 4.77618 0.00585938 6.55675C0.00585938 8.33773 0.013731 8.56107 0.0478414 9.26018C0.0819518 9.95806 0.200026 10.4347 0.373202 10.8518C0.552063 11.2829 0.791273 11.6485 1.18048 12.0132C1.56925 12.3775 1.95934 12.6017 2.41983 12.7693C2.86457 12.9315 3.37317 13.0422 4.11791 13.0742C4.8644 13.1061 5.10274 13.1135 7.00286 13.1135C8.90299 13.1135 9.14132 13.1061 9.88782 13.0742C10.6326 13.0422 11.1412 12.9315 11.5859 12.7693C12.0464 12.6017 12.4365 12.3775 12.8252 12.0132C13.2145 11.6485 13.4537 11.2829 13.6325 10.8518C13.8057 10.4347 13.9238 9.95806 13.9579 9.26018C13.992 8.56107 13.9999 8.33773 13.9999 6.55675C13.9999 4.77618 13.992 4.55284 13.9579 3.85332C13.9238 3.15544 13.8057 2.67884 13.6325 2.26208C13.4537 1.83056 13.2145 1.46502 12.8252 1.10071C12.4365 0.735995 12.0464 0.511836 11.5859 0.344229C11.1412 0.18236 10.6326 0.0713046 9.88782 0.0393405C9.14132 0.00778614 8.90299 0 7.00286 0ZM7.00316 1.18162C8.87136 1.18162 9.09264 1.18818 9.83039 1.21973C10.5126 1.24883 10.8834 1.35578 11.1301 1.44553C11.4563 1.56437 11.6894 1.70657 11.9343 1.93606C12.1792 2.16554 12.3309 2.38396 12.4578 2.68967C12.5535 2.9208 12.6677 3.26831 12.6987 3.90759C12.7324 4.59892 12.7394 4.80627 12.7394 6.55693C12.7394 8.30758 12.7324 8.51494 12.6987 9.20626C12.6677 9.84555 12.5535 10.1931 12.4578 10.4242C12.3309 10.7299 12.1792 10.9483 11.9343 11.1778C11.6894 11.4073 11.4563 11.5495 11.1301 11.6683C10.8834 11.7581 10.5126 11.865 9.83039 11.8941C9.09264 11.9257 8.87136 11.9322 7.00316 11.9322C5.13496 11.9322 4.91368 11.9257 4.17593 11.8941C3.49372 11.865 3.12288 11.7581 2.87624 11.6683C2.55 11.5495 2.31692 11.4073 2.07202 11.1778C1.82712 10.9483 1.67538 10.7299 1.54856 10.4242C1.45279 10.1931 1.33865 9.84555 1.3076 9.20626C1.27392 8.51494 1.26693 8.30758 1.26693 6.55693C1.26693 4.80627 1.27392 4.59892 1.3076 3.90759C1.33865 3.26831 1.45279 2.9208 1.54856 2.68967C1.67538 2.38396 1.82712 2.16554 2.07202 1.93606C2.31692 1.70657 2.55 1.56437 2.87624 1.44553C3.12288 1.35578 3.49372 1.24883 4.17593 1.21973C4.91368 1.18818 5.13496 1.18162 7.00316 1.18162Z" fill="white"/>
        <path fill-rule="evenodd" clip-rule="evenodd" d="M7.16332 8.68469C5.83856 8.68469 4.76436 7.73188 4.76436 6.55683C4.76436 5.38138 5.83856 4.42857 7.16332 4.42857C8.48808 4.42857 9.56228 5.38138 9.56228 6.55683C9.56228 7.73188 8.48808 8.68469 7.16332 8.68469ZM7.16336 3.27832C5.12201 3.27832 3.46753 4.74624 3.46753 6.55689C3.46753 8.36755 5.12201 9.83507 7.16336 9.83507C9.2047 9.83507 10.8592 8.36755 10.8592 6.55689C10.8592 4.74624 9.2047 3.27832 7.16336 3.27832Z" fill="white"/>
        <path fill-rule="evenodd" clip-rule="evenodd" d="M11.5631 3.11452C11.5631 3.567 11.169 3.93411 10.6832 3.93411C10.1974 3.93411 9.80322 3.567 9.80322 3.11452C9.80322 2.6616 10.1974 2.29492 10.6832 2.29492C11.169 2.29492 11.5631 2.6616 11.5631 3.11452Z" fill="white"/>
    </symbol>

    <symbol id="linkedin-logo" viewBox="0 0 24 24" xmlns="http://www.w3.org/2000/svg">
        <path fill-rule="evenodd" clip-rule="evenodd" d="M5.89636 6.52144C5.89636 5.44046 5.85624 4.53712 5.81612 3.75725H8.44512L8.5853 4.96254H8.64525C9.04314 4.39517 10.0192 3.56281 11.6523 3.56281C13.6437 3.56281 15.1375 4.75004 15.1375 7.30173V12.4232H12.1101V7.6209C12.1101 6.50464 11.6712 5.74241 10.5762 5.74241C9.74027 5.74241 9.24279 6.25602 9.02331 6.75242C8.94355 6.92964 8.92372 7.17742 8.92372 7.42562V12.4232H5.89636V6.52144ZM1.05802 12.4224H4.08539V3.75734H1.05802V12.4224ZM4.18403 1.34724C4.18403 2.09099 3.56619 2.69364 2.55094 2.69364C1.59515 2.69364 0.977783 2.09099 0.977783 1.34724C0.977783 0.585427 1.61545 0 2.59106 0C3.56619 0 4.16421 0.585427 4.18403 1.34724Z" fill="white"/>
    </symbol>

    <symbol id="arrow-left-icon" viewBox="0 0 7 10" xmlns="http://www.w3.org/2000/svg">
        <path d="M6.01161 1.63233C6.2996 1.38034 6.32879 0.942595 6.07679 0.6546C5.8248 0.366606 5.38706 0.337422 5.09906 0.589418L6.01161 1.63233ZM5.09906 9.41011C5.38706 9.66211 5.8248 9.63292 6.07679 9.34493C6.32879 9.05693 6.2996 8.61919 6.01161 8.3672L5.09906 9.41011ZM1.40887 5.2605L1.86515 4.73903L1.40887 5.2605ZM6.01161 8.3672L1.86515 4.73903L0.952589 5.78196L5.09906 9.41011L6.01161 8.3672ZM1.86515 5.2605L6.01161 1.63233L5.09906 0.589418L0.95259 4.21758L1.86515 5.2605ZM1.86515 4.73903C2.02289 4.87707 2.02289 5.12247 1.86515 5.2605L0.95259 4.21758C0.479346 4.63167 0.479344 5.36787 0.952589 5.78196L1.86515 4.73903Z" fill="#737A91"/>
    </symbol>

    <symbol id="arrow-right-icon" viewBox="0 0 7 10" xmlns="http://www.w3.org/2000/svg">
        <path d="M0.654893 8.36767C0.366904 8.61966 0.337715 9.05741 0.589715 9.3454C0.841704 9.63339 1.27945 9.66258 1.56745 9.41058L0.654893 8.36767ZM1.56745 0.589889C1.27945 0.337889 0.841704 0.367077 0.589715 0.655066C0.337715 0.943066 0.366904 1.38081 0.654893 1.6328L1.56745 0.589889ZM5.25764 4.7395L4.80136 5.26097L5.25764 4.7395ZM0.654893 1.6328L4.80136 5.26097L5.71392 4.21804L1.56745 0.589889L0.654893 1.6328ZM4.80136 4.7395L0.654893 8.36767L1.56745 9.41058L5.71391 5.78242L4.80136 4.7395ZM4.80136 5.26097C4.64361 5.12293 4.64361 4.87753 4.80136 4.7395L5.71391 5.78242C6.18716 5.36833 6.18716 4.63213 5.71392 4.21804L4.80136 5.26097Z" fill="#737A91"/>
    </symbol>

    <symbol id="dropdown-arrow" viewBox="0 0 10 6" xmlns="http://www.w3.org/2000/svg">
        <path d="M1 1L5 4.76471L9 1" fill="#543565"/>
        <path d="M1 1L5 4.76471L9 1H1Z" stroke="#543565" stroke-linecap="round" stroke-linejoin="round"/>
    </symbol>

    <symbol id="search-icon" viewBox="0 0 25 25" xmlns="http://www.w3.org/2000/svg">
        <path d="M10.06 19.12C15.0637 19.12 19.12 15.0637 19.12 10.06C19.12 5.0563 15.0637 1 10.06 1C5.0563 1 1 5.0563 1 10.06C1 15.0637 5.0563 19.12 10.06 19.12Z" stroke="white" stroke-width="2" stroke-linecap="round" stroke-linejoin="round"/>
        <path d="M16.46 16.46L23.49 23.49" stroke="white" stroke-width="2" stroke-linecap="round" stroke-linejoin="round"/>
    </symbol>

    <symbol id="softcom-logo" viewBox="0 0 91 24"  xmlns="http://www.w3.org/2000/svg">
        <path d="M36.8381 11.2567H37.3141L36.8417 11.2529L36.8381 11.2567Z" fill="white"/>
        <path d="M56.781 16.5687L56.7846 16.5649H56.781V16.5687Z" fill="white"/>
        <path d="M10.8512 11.3286H10.7832C10.9502 11.3892 11.116 11.4523 11.2806 11.5179L10.8512 11.3286Z" fill="white"/>
        <path d="M71.7953 21.9301L72.6363 19.374C71.196 20.0901 69.8219 20.9458 68.5317 21.9301H71.7953Z" fill="white"/>
        <path d="M65.4729 14.8058L64.6857 17.1957C64.5492 17.7861 64.2273 18.3104 63.7725 18.6833C63.3177 19.0562 62.7567 19.2558 62.1807 19.2496C60.0981 19.2232 61.0535 16.8068 61.0535 16.8068L61.304 16.1008C56.7987 17.2334 53.2417 20.4578 51.9463 21.7641C54.4262 21.194 55.4317 20.2237 56.2691 19.1212C56.4164 18.8963 56.548 18.6603 56.6627 18.4152C57.1064 21.8132 61.5366 21.9567 61.5366 21.9567C65.9918 21.9869 67.5484 20.1633 68.3357 18.6908C68.3965 18.5738 68.4645 18.4341 68.5289 18.283L67.7202 20.8429C69.425 19.6797 71.2365 18.7007 73.1273 17.9206L74.666 13.2427C73.1774 13.3748 67.8526 13.9714 65.4729 14.8058Z" fill="white"/>
        <path d="M82.1048 14.6886L82.5378 13.0802C82.5378 13.0802 82.5664 12.9745 82.6201 12.8159C81.1887 12.8159 79.5533 12.8612 77.7784 12.9669C77.7355 13.1972 77.6889 13.4427 77.6174 13.7221L77.3454 14.6961L76.873 16.5537C78.5189 16.0899 80.1927 15.7442 81.8829 15.5192L82.1048 14.6886Z" fill="white"/>
        <path d="M75.5991 21.5864H80.3871L81.6968 16.3384C79.9714 16.6661 78.2671 17.1074 76.5939 17.6598L75.5991 21.5864Z" fill="white"/>
        <path d="M89.752 15.2738L90.1922 13.6239C89.0041 13.5219 87.3688 13.4086 85.4328 13.3369V13.3671L84.9604 15.236C86.557 15.1537 88.1568 15.1663 89.752 15.2738Z" fill="white"/>
        <path d="M83.3394 21.5753H88.1273L89.7054 15.4551C88.4745 15.4853 86.7675 15.5797 84.7886 15.8326L83.3394 21.5753Z" fill="white"/>
        <path d="M87.2111 7.74535C85.8728 7.6283 83.1675 7.81708 82.1334 10.0673C82.1334 10.0673 82.5592 7.71514 78.4655 7.71514C77.5709 7.71514 76.3614 7.66983 75.1984 9.22536L74.5077 7.88882H71.7416L70.6681 10.9583L70.3102 12.091C70.346 8.79873 67.6407 7.80198 65.2468 7.81331C61.6183 7.81331 59.7002 9.34996 58.7233 11.0376C58.5468 11.3509 58.3855 11.6735 58.2402 12.0042C58.072 8.88556 55.0733 7.92657 52.733 7.9379C49.7129 7.9379 47.8843 9.00638 46.7893 10.3316L47.0684 9.04791L44.6494 9.08944L45.637 4.99674L40.3052 6.34461L39.5 9.04414H37.3172H35.8858C35.8858 9.04414 36.2437 7.69626 36.394 7.25075C36.7518 6.11808 37.3458 4.12836 39.0563 4.94011L39.772 3.30151C39.772 3.30151 36.3081 2.27456 34.0465 3.42611C32.7941 4.06418 31.7885 4.93633 30.6542 9.02903H28.5L28.228 10.2712C27.4121 8.48913 25.3653 7.89637 23.5295 7.90392C19.901 7.90392 17.9866 9.44057 17.0061 11.1282C16.2693 12.5598 15.7021 14.0814 15.3171 15.6589C15.3171 15.6098 15.3171 15.5645 15.2956 15.5268C15.2323 15.2068 15.1263 14.8978 14.9807 14.6093C14.2901 13.2312 12.7621 12.1967 11.2842 11.5209C11.1196 11.4555 10.9538 11.3925 10.7868 11.3321C10.4504 11.2113 10.1033 11.1056 9.75261 11.0112C6.1062 10.0296 6.24218 8.66658 6.5535 7.77177C6.86482 6.87697 7.84889 5.95573 9.83849 6.14828C12.2754 6.3937 11.5275 9.42924 11.5275 9.42924H16.3727C16.4714 8.72861 16.5336 8.02277 16.5588 7.31493C16.4264 3.6904 12.2074 3.09386 10.4146 2.99947C1.40415 2.51997 0.992634 8.33433 1.2145 9.47078C1.36558 10.169 1.69331 10.811 2.16278 11.3284C3.03126 12.2577 4.07141 12.9889 5.21875 13.4766C5.72293 13.6804 6.2379 13.8531 6.76105 13.9939C10.4039 14.9755 10.2715 16.3385 9.96016 17.2333C9.64884 18.1281 8.66119 19.0531 6.67159 18.853C6.41067 18.8426 6.15475 18.7743 5.92048 18.6527C5.6862 18.5311 5.47881 18.3588 5.31179 18.147C4.59611 17.1767 4.66052 15.5721 4.66052 15.5721H0.0157249C0.0157249 15.5721 -0.78942 22.4436 9.12281 21.9641C12.6798 21.5601 14.2471 19.8989 14.8984 18.3433C15.1918 21.9112 19.7937 22.0811 19.7937 22.0811C24.2488 22.1113 25.809 20.2878 26.5927 18.8153C27.1867 17.6826 28.1779 14.6357 28.1779 14.6357C28.563 13.5533 28.68 12.385 28.5179 11.2415H30.1818L27.1473 22.0509H32.3718L35.3884 11.2415H36.8413H38.8452L37.2313 17.4674C36.3797 21.0693 38.6627 21.9414 39.9581 22.0472C42.6991 22.2737 44.4239 21.2732 44.4239 21.2732L44.5671 19.8007C45.7587 21.8848 48.8612 22.0472 49.0079 22.066C49.5661 21.3978 51.8492 18.8908 56.4689 16.5802H52.4146L52.1712 17.3353C52.0336 17.925 51.7114 18.4486 51.2569 18.8213C50.8024 19.194 50.242 19.394 49.6663 19.3892C48.0238 19.3892 48.8612 16.9502 48.8612 16.9502L50.3462 12.7442C51.1872 10.6903 52.0603 10.4864 52.3859 10.4864C54.533 10.4864 53.5096 13.2463 53.5096 13.2463L53.4595 13.3974H57.7035C57.3605 14.3762 57.0655 15.373 56.8196 16.3838C58.4612 15.591 60.1545 14.9235 61.8866 14.3866L62.52 12.5932C63.1928 10.5242 64.574 10.3278 64.8997 10.358C67.0467 10.4449 66.0233 13.118 66.0233 13.118L65.9517 13.3369C68.8884 12.7139 71.871 12.3627 74.8656 12.2873C75.2234 11.57 75.9391 10.6601 77.1844 10.8791C77.6389 10.9583 77.8822 11.419 77.85 12.2571H78.7016C80.0042 12.2571 81.3568 12.3289 82.7596 12.4233C83.0602 11.7286 83.6828 10.7167 84.7671 10.7054C85.336 10.7054 85.88 10.9093 85.5329 12.7555C86.7746 12.8801 88.9681 13.2199 90.2134 13.4313L90.6142 11.838C90.6142 11.838 91.6985 8.14555 87.2111 7.74535ZM24.2989 13.2539L22.9606 17.3202C22.8241 17.9106 22.5022 18.4349 22.0474 18.8078C21.5926 19.1807 21.0316 19.3803 20.4557 19.3741C18.3695 19.3476 19.3285 16.9313 19.3285 16.9313L20.8135 12.7253C21.4827 10.6563 22.8675 10.46 23.1932 10.4902C25.3259 10.5808 24.2989 13.2539 24.2989 13.2539ZM46.1774 11.2793C45.4295 12.612 44.746 14.7377 44.2951 16.5915C44.0088 17.5544 44.0583 18.5936 44.4347 19.5213C41.6113 20.2462 42.3413 17.5958 42.3413 17.5958L44.0303 11.2981L46.1774 11.2642V11.2793Z" fill="white"/>
    </symbol>

    <symbol id="fav-icon-unclicked"  viewBox="0 0 20 19" xmlns="http://www.w3.org/2000/svg">
        <path fill-rule="evenodd" clip-rule="evenodd" d="M14.5 0C12.76 0 11.09 0.81 10 2.09C8.91 0.81 7.24 0 5.5 0C2.42 0 0 2.42 0 5.5C0 9.28 3.4 12.36 8.55 17.04L10 18.35L11.45 17.03C16.6 12.36 20 9.28 20 5.5C20 2.42 17.58 0 14.5 0ZM10.1 15.55L10 15.65L9.9 15.55C5.14 11.24 2 8.39 2 5.5C2 3.5 3.5 2 5.5 2C7.04 2 8.54 2.99 9.07 4.36H10.94C11.46 2.99 12.96 2 14.5 2C16.5 2 18 3.5 18 5.5C18 8.39 14.86 11.24 10.1 15.55Z" fill="#E8E4EB"/>
    </symbol>

    <symbol id="fav-icon-clicked" viewBox="0 0 20 19" fill="none" xmlns="http://www.w3.org/2000/svg">
        <path fill-rule="evenodd" clip-rule="evenodd" d="M14.5 0C12.76 0 11.09 0.81 10 2.09C8.91 0.81 7.24 0 5.5 0C2.42 0 0 2.42 0 5.5C0 9.28 3.4 12.36 8.55 17.04L10 18.35L11.45 17.03C16.6 12.36 20 9.28 20 5.5C20 2.42 17.58 0 14.5 0Z" fill="#18206F"/>
    </symbol>

    <symbol id="filled-star-icon" viewBox="0 0 22 20"  xmlns="http://www.w3.org/2000/svg">
        <path fill-rule="evenodd" clip-rule="evenodd" d="M11 16.0737L17.3931 20L15.6965 12.6L21.3448 7.62105L13.9069 6.97895L11 0L8.09308 6.97895L0.655151 7.62105L6.30343 12.6L4.60688 20L11 16.0737Z" fill="#FFB518"/>
    </symbol>

    <symbol id="outlined-star-icon" viewBox="0 0 21 20" fill="none" xmlns="http://www.w3.org/2000/svg">
        <path fill-rule="evenodd" clip-rule="evenodd" d="M20.6897 7.62105L13.2517 6.96842L10.3448 0L7.43793 6.97895L0 7.62105L5.64828 12.6L3.95172 20L10.3448 16.0737L16.7379 20L15.0517 12.6L20.6897 7.62105ZM10.3448 14.1053L6.45517 16.4947L7.48966 11.9895L4.05517 8.9579L8.58621 8.5579L10.3448 4.31579L12.1138 8.56842L16.6448 8.96842L13.2103 12L14.2448 16.5053L10.3448 14.1053Z" fill="#FFB518"/>
    </symbol>

    <symbol id="full-stars" viewBox="0 0 115 20"  xmlns="http://www.w3.org/2000/svg">
        <path fill-rule="evenodd" clip-rule="evenodd" d="M33.7069 15.3441L39.8337 19.0922L38.2078 12.0281L43.6207 7.27515L36.4927 6.66218L33.7069 0L30.9212 6.66218L23.7932 7.27515L29.2061 12.0281L27.5802 19.0922L33.7069 15.3441Z" fill="#FFB518"/>
        <path fill-rule="evenodd" clip-rule="evenodd" d="M80.9138 15.3441L87.0405 19.0922L85.4147 12.0281L90.8276 7.27515L83.6996 6.66218L80.9138 0L78.128 6.66218L71 7.27515L76.4129 12.0281L74.7871 19.0922L80.9138 15.3441Z" fill="#FFB518"/>
        <path fill-rule="evenodd" clip-rule="evenodd" d="M57.9138 15.3441L64.0405 19.0922L62.4147 12.0281L67.8276 7.27515L60.6996 6.66218L57.9138 0L55.128 6.66218L48 7.27515L53.4129 12.0281L51.7871 19.0922L57.9138 15.3441Z" fill="#FFB518"/>
        <path fill-rule="evenodd" clip-rule="evenodd" d="M104.914 15.3441L111.041 19.0922L109.415 12.0281L114.828 7.27515L107.7 6.66218L104.914 0L102.128 6.66218L95 7.27515L100.413 12.0281L98.7871 19.0922L104.914 15.3441Z" fill="#FFB518"/>
        <path fill-rule="evenodd" clip-rule="evenodd" d="M9.91379 15.3441L16.0405 19.0922L14.4147 12.0281L19.8276 7.27515L12.6996 6.66218L9.91379 0L7.12802 6.66218L0 7.27515L5.41293 12.0281L3.78707 19.0922L9.91379 15.3441Z" fill="#FFB518"/>
    </symbol>

    <symbol id="four-stars" viewBox="0 0 115 20" xmlns="http://www.w3.org/2000/svg">
        <path fill-rule="evenodd" clip-rule="evenodd" d="M115 7.27515L107.872 6.65214L105.086 0L102.3 6.66218L95.1724 7.27515L100.585 12.0281L98.9594 19.0922L105.086 15.3441L111.213 19.0922L109.597 12.0281L115 7.27515V7.27515ZM105.086 13.4651L101.359 15.7461L102.35 11.4453L99.0586 8.55133L103.401 8.16948L105.086 4.11992L106.781 8.17953L111.124 8.56138L107.832 11.4554L108.824 15.7561L105.086 13.4651V13.4651Z" fill="#FFB518"/>
        <path fill-rule="evenodd" clip-rule="evenodd" d="M33.7069 15.3441L39.8337 19.0922L38.2078 12.0281L43.6207 7.27515L36.4927 6.66218L33.7069 0L30.9212 6.66218L23.7932 7.27515L29.2061 12.0281L27.5802 19.0922L33.7069 15.3441Z" fill="#FFB518"/>
        <path fill-rule="evenodd" clip-rule="evenodd" d="M57.9138 15.3441L64.0405 19.0922L62.4147 12.0281L67.8276 7.27515L60.6996 6.66218L57.9138 0L55.128 6.66218L48 7.27515L53.4129 12.0281L51.7871 19.0922L57.9138 15.3441Z" fill="#FFB518"/>
        <path fill-rule="evenodd" clip-rule="evenodd" d="M80.9138 15.3441L87.0405 19.0922L85.4147 12.0281L90.8276 7.27515L83.6996 6.66218L80.9138 0L78.128 6.66218L71 7.27515L76.4129 12.0281L74.7871 19.0922L80.9138 15.3441Z" fill="#FFB518"/>
        <path fill-rule="evenodd" clip-rule="evenodd" d="M9.91379 15.3441L16.0405 19.0922L14.4147 12.0281L19.8276 7.27515L12.6996 6.66218L9.91379 0L7.12802 6.66218L0 7.27515L5.41293 12.0281L3.78707 19.0922L9.91379 15.3441Z" fill="#FFB518"/>
    </symbol>

    <symbol id="three-stars" viewBox="0 0 115 20"  xmlns="http://www.w3.org/2000/svg">
        <path fill-rule="evenodd" clip-rule="evenodd" d="M115 7.27515L107.872 6.65214L105.086 0L102.3 6.66218L95.1724 7.27515L100.585 12.0281L98.9594 19.0922L105.086 15.3441L111.213 19.0922L109.597 12.0281L115 7.27515V7.27515ZM105.086 13.4651L101.359 15.7461L102.35 11.4453L99.0586 8.55133L103.401 8.16948L105.086 4.11992L106.781 8.17953L111.124 8.56138L107.832 11.4554L108.824 15.7561L105.086 13.4651V13.4651Z" fill="#FFB518"/>
        <path fill-rule="evenodd" clip-rule="evenodd" d="M90.8276 7.27515L83.6996 6.65214L80.9138 0L78.128 6.66218L71 7.27515L76.4129 12.0281L74.7871 19.0922L80.9138 15.3441L87.0405 19.0922L85.4246 12.0281L90.8276 7.27515V7.27515ZM80.9138 13.4651L77.1862 15.7461L78.1776 11.4453L74.8862 8.55133L79.2285 8.16948L80.9138 4.11992L82.6091 8.17953L86.9513 8.56138L83.6599 11.4554L84.6513 15.7561L80.9138 13.4651V13.4651Z" fill="#FFB518"/>
        <path fill-rule="evenodd" clip-rule="evenodd" d="M33.7069 15.3441L39.8337 19.0922L38.2078 12.0281L43.6207 7.27515L36.4927 6.66218L33.7069 0L30.9212 6.66218L23.7932 7.27515L29.2061 12.0281L27.5802 19.0922L33.7069 15.3441Z" fill="#FFB518"/>
        <path fill-rule="evenodd" clip-rule="evenodd" d="M57.9138 15.3441L64.0405 19.0922L62.4147 12.0281L67.8276 7.27515L60.6996 6.66218L57.9138 0L55.128 6.66218L48 7.27515L53.4129 12.0281L51.7871 19.0922L57.9138 15.3441Z" fill="#FFB518"/>
        <path fill-rule="evenodd" clip-rule="evenodd" d="M9.91379 15.3441L16.0405 19.0922L14.4147 12.0281L19.8276 7.27515L12.6996 6.66218L9.91379 0L7.12802 6.66218L0 7.27515L5.41293 12.0281L3.78707 19.0922L9.91379 15.3441Z" fill="#FFB518"/>
    </symbol>

    <symbol id="two-stars" viewBox="0 0 115 20" xmlns="http://www.w3.org/2000/svg">
        <path fill-rule="evenodd" clip-rule="evenodd" d="M33.7069 15.3441L39.8337 19.0922L38.2078 12.0281L43.6207 7.27515L36.4927 6.66218L33.7069 0L30.9212 6.66218L23.7932 7.27515L29.2061 12.0281L27.5802 19.0922L33.7069 15.3441Z" fill="#FFB518"/>
        <path fill-rule="evenodd" clip-rule="evenodd" d="M67.8276 7.27515L60.6996 6.65214L57.9138 0L55.128 6.66218L48 7.27515L53.4129 12.0281L51.7871 19.0922L57.9138 15.3441L64.0405 19.0922L62.4246 12.0281L67.8276 7.27515V7.27515ZM57.9138 13.4651L54.1862 15.7461L55.1776 11.4453L51.8862 8.55133L56.2285 8.16948L57.9138 4.11992L59.6091 8.17953L63.9513 8.56138L60.6599 11.4554L61.6513 15.7561L57.9138 13.4651V13.4651Z" fill="#FFB518"/>
        <path fill-rule="evenodd" clip-rule="evenodd" d="M90.8276 7.27515L83.6996 6.65214L80.9138 0L78.128 6.66218L71 7.27515L76.4129 12.0281L74.7871 19.0922L80.9138 15.3441L87.0405 19.0922L85.4246 12.0281L90.8276 7.27515V7.27515ZM80.9138 13.4651L77.1862 15.7461L78.1776 11.4453L74.8862 8.55133L79.2285 8.16948L80.9138 4.11992L82.6091 8.17953L86.9513 8.56138L83.6599 11.4554L84.6513 15.7561L80.9138 13.4651V13.4651Z" fill="#FFB518"/>
        <path fill-rule="evenodd" clip-rule="evenodd" d="M114.828 7.27515L107.7 6.65214L104.914 0L102.128 6.66218L95 7.27515L100.413 12.0281L98.7871 19.0922L104.914 15.3441L111.041 19.0922L109.425 12.0281L114.828 7.27515V7.27515ZM104.914 13.4651L101.186 15.7461L102.178 11.4453L98.8862 8.55133L103.228 8.16948L104.914 4.11992L106.609 8.17953L110.951 8.56138L107.66 11.4554L108.651 15.7561L104.914 13.4651V13.4651Z" fill="#FFB518"/>
        <path fill-rule="evenodd" clip-rule="evenodd" d="M9.91379 15.3441L16.0405 19.0922L14.4147 12.0281L19.8276 7.27515L12.6996 6.66218L9.91379 0L7.12802 6.66218L0 7.27515L5.41293 12.0281L3.78707 19.0922L9.91379 15.3441Z" fill="#FFB518"/>
    </symbol>

    <symbol id="one-star" width="115" height="20" viewBox="0 0 115 20" fill="none" xmlns="http://www.w3.org/2000/svg">
        <path fill-rule="evenodd" clip-rule="evenodd" d="M115 7.27515L107.872 6.65214L105.086 0L102.3 6.66218L95.1724 7.27515L100.585 12.0281L98.9594 19.0922L105.086 15.3441L111.213 19.0922L109.597 12.0281L115 7.27515V7.27515ZM105.086 13.4651L101.359 15.7461L102.35 11.4453L99.0586 8.55133L103.401 8.16948L105.086 4.11992L106.781 8.17953L111.124 8.56138L107.832 11.4554L108.824 15.7561L105.086 13.4651V13.4651Z" fill="#FFB518"/>
        <path fill-rule="evenodd" clip-rule="evenodd" d="M90.8276 7.27515L83.6996 6.65214L80.9138 0L78.128 6.66218L71 7.27515L76.4129 12.0281L74.7871 19.0922L80.9138 15.3441L87.0405 19.0922L85.4246 12.0281L90.8276 7.27515V7.27515ZM80.9138 13.4651L77.1862 15.7461L78.1776 11.4453L74.8862 8.55133L79.2285 8.16948L80.9138 4.11992L82.6091 8.17953L86.9513 8.56138L83.6599 11.4554L84.6513 15.7561L80.9138 13.4651V13.4651Z" fill="#FFB518"/>
        <path fill-rule="evenodd" clip-rule="evenodd" d="M67.8276 7.27515L60.6996 6.65214L57.9138 0L55.128 6.66218L48 7.27515L53.4129 12.0281L51.7871 19.0922L57.9138 15.3441L64.0405 19.0922L62.4246 12.0281L67.8276 7.27515V7.27515ZM57.9138 13.4651L54.1862 15.7461L55.1776 11.4453L51.8862 8.55133L56.2285 8.16948L57.9138 4.11992L59.6091 8.17953L63.9513 8.56138L60.6599 11.4554L61.6513 15.7561L57.9138 13.4651V13.4651Z" fill="#FFB518"/>
        <path fill-rule="evenodd" clip-rule="evenodd" d="M43.8276 7.27515L36.6996 6.65214L33.9138 0L31.128 6.66218L24 7.27515L29.4129 12.0281L27.7871 19.0922L33.9138 15.3441L40.0405 19.0922L38.4246 12.0281L43.8276 7.27515V7.27515ZM33.9138 13.4651L30.1862 15.7461L31.1776 11.4453L27.8862 8.55133L32.2285 8.16948L33.9138 4.11992L35.6091 8.17953L39.9513 8.56138L36.6599 11.4554L37.6513 15.7561L33.9138 13.4651V13.4651Z" fill="#FFB518"/>
        <path fill-rule="evenodd" clip-rule="evenodd" d="M9.91379 15.3441L16.0405 19.0922L14.4147 12.0281L19.8276 7.27515L12.6996 6.66218L9.91379 0L7.12802 6.66218L0 7.27515L5.41293 12.0281L3.78707 19.0922L9.91379 15.3441Z" fill="#FFB518"/>
    </symbol>

    <symbol id="one-and-half-stars" viewBox="0 0 115 20" fill="none" xmlns="http://www.w3.org/2000/svg">
        <path fill-rule="evenodd" clip-rule="evenodd" d="M43.8276 7.27515L36.6996 6.65214L33.9138 0L31.128 6.66218L24 7.27515L29.4129 12.0281L27.7871 19.0922L33.9138 15.3441L40.0405 19.0922L38.4246 12.0281L43.8276 7.27515V7.27515ZM33.9138 13.4651V4.11992L35.6091 8.17953L39.9513 8.56138L36.6599 11.4554L37.6513 15.7561L33.9138 13.4651V13.4651Z" fill="#FFB518"/>
        <path fill-rule="evenodd" clip-rule="evenodd" d="M115 7.27515L107.872 6.65214L105.086 0L102.3 6.66218L95.1724 7.27515L100.585 12.0281L98.9594 19.0922L105.086 15.3441L111.213 19.0922L109.597 12.0281L115 7.27515V7.27515ZM105.086 13.4651L101.359 15.7461L102.35 11.4453L99.0586 8.55133L103.401 8.16948L105.086 4.11992L106.781 8.17953L111.124 8.56138L107.832 11.4554L108.824 15.7561L105.086 13.4651V13.4651Z" fill="#FFB518"/>
        <path fill-rule="evenodd" clip-rule="evenodd" d="M90.8276 7.27515L83.6996 6.65214L80.9138 0L78.128 6.66218L71 7.27515L76.4129 12.0281L74.7871 19.0922L80.9138 15.3441L87.0405 19.0922L85.4246 12.0281L90.8276 7.27515V7.27515ZM80.9138 13.4651L77.1862 15.7461L78.1776 11.4453L74.8862 8.55133L79.2285 8.16948L80.9138 4.11992L82.6091 8.17953L86.9513 8.56138L83.6599 11.4554L84.6513 15.7561L80.9138 13.4651V13.4651Z" fill="#FFB518"/>
        <path fill-rule="evenodd" clip-rule="evenodd" d="M67.8276 7.27515L60.6996 6.65214L57.9138 0L55.128 6.66218L48 7.27515L53.4129 12.0281L51.7871 19.0922L57.9138 15.3441L64.0405 19.0922L62.4246 12.0281L67.8276 7.27515V7.27515ZM57.9138 13.4651L54.1862 15.7461L55.1776 11.4453L51.8862 8.55133L56.2285 8.16948L57.9138 4.11992L59.6091 8.17953L63.9513 8.56138L60.6599 11.4554L61.6513 15.7561L57.9138 13.4651V13.4651Z" fill="#FFB518"/>
        <path fill-rule="evenodd" clip-rule="evenodd" d="M9.91379 15.3441L16.0405 19.0922L14.4147 12.0281L19.8276 7.27515L12.6996 6.66218L9.91379 0L7.12802 6.66218L0 7.27515L5.41293 12.0281L3.78707 19.0922L9.91379 15.3441Z" fill="#FFB518"/>
    </symbol>

    <symbol id="two-and-half-stars" viewBox="0 0 115 20" xmlns="http://www.w3.org/2000/svg">
        <path fill-rule="evenodd" clip-rule="evenodd" d="M67.8276 7.27515L60.6996 6.65214L57.9138 0L55.128 6.66218L48 7.27515L53.4129 12.0281L51.7871 19.0922L57.9138 15.3441L64.0405 19.0922L62.4246 12.0281L67.8276 7.27515V7.27515ZM57.9138 13.4651V4.11992L59.6091 8.17953L63.9513 8.56138L60.6599 11.4554L61.6513 15.7561L57.9138 13.4651V13.4651Z" fill="#FFB518"/>
        <path fill-rule="evenodd" clip-rule="evenodd" d="M115 7.27515L107.872 6.65214L105.086 0L102.3 6.66218L95.1724 7.27515L100.585 12.0281L98.9594 19.0922L105.086 15.3441L111.213 19.0922L109.597 12.0281L115 7.27515V7.27515ZM105.086 13.4651L101.359 15.7461L102.35 11.4453L99.0586 8.55133L103.401 8.16948L105.086 4.11992L106.781 8.17953L111.124 8.56138L107.832 11.4554L108.824 15.7561L105.086 13.4651V13.4651Z" fill="#FFB518"/>
        <path fill-rule="evenodd" clip-rule="evenodd" d="M90.8276 7.27515L83.6996 6.65214L80.9138 0L78.128 6.66218L71 7.27515L76.4129 12.0281L74.7871 19.0922L80.9138 15.3441L87.0405 19.0922L85.4246 12.0281L90.8276 7.27515V7.27515ZM80.9138 13.4651L77.1862 15.7461L78.1776 11.4453L74.8862 8.55133L79.2285 8.16948L80.9138 4.11992L82.6091 8.17953L86.9513 8.56138L83.6599 11.4554L84.6513 15.7561L80.9138 13.4651V13.4651Z" fill="#FFB518"/>
        <path fill-rule="evenodd" clip-rule="evenodd" d="M33.7069 15.3441L39.8337 19.0922L38.2078 12.0281L43.6207 7.27515L36.4927 6.66218L33.7069 0L30.9212 6.66218L23.7932 7.27515L29.2061 12.0281L27.5802 19.0922L33.7069 15.3441Z" fill="#FFB518"/>
        <path fill-rule="evenodd" clip-rule="evenodd" d="M9.91379 15.3441L16.0405 19.0922L14.4147 12.0281L19.8276 7.27515L12.6996 6.66218L9.91379 0L7.12802 6.66218L0 7.27515L5.41293 12.0281L3.78707 19.0922L9.91379 15.3441Z" fill="#FFB518"/>
    </symbol>

    <symbol id="three-and-half-stars" viewBox="0 0 115 20" xmlns="http://www.w3.org/2000/svg">
        <path fill-rule="evenodd" clip-rule="evenodd" d="M91.2069 7.27515L84.0789 6.65214L81.2931 0L78.5074 6.66218L71.3793 7.27515L76.7923 12.0281L75.1664 19.0922L81.2931 15.3441L87.4198 19.0922L85.8039 12.0281L91.2069 7.27515ZM81.2931 13.4651V4.11992L82.9884 8.17953L87.3306 8.56138L84.0393 11.4554L85.0306 15.7561L81.2931 13.4651Z" fill="#FFB518"/>
        <path fill-rule="evenodd" clip-rule="evenodd" d="M115 7.27515L107.872 6.65214L105.086 0L102.3 6.66218L95.1724 7.27515L100.585 12.0281L98.9595 19.0922L105.086 15.3441L111.213 19.0922L109.597 12.0281L115 7.27515ZM105.086 13.4651L101.359 15.7461L102.35 11.4453L99.0586 8.55133L103.401 8.16948L105.086 4.11992L106.781 8.17953L111.124 8.56138L107.832 11.4554L108.824 15.7561L105.086 13.4651Z" fill="#FFB518"/>
        <path fill-rule="evenodd" clip-rule="evenodd" d="M57.5 15.3441L63.6267 19.0922L62.0008 12.0281L67.4138 7.27515L60.2857 6.66218L57.5 0L54.7142 6.66218L47.5862 7.27515L52.9991 12.0281L51.3733 19.0922L57.5 15.3441Z" fill="#FFB518"/>
        <path fill-rule="evenodd" clip-rule="evenodd" d="M33.7069 15.3441L39.8337 19.0922L38.2078 12.0281L43.6207 7.27515L36.4927 6.66218L33.7069 0L30.9212 6.66218L23.7932 7.27515L29.2061 12.0281L27.5802 19.0922L33.7069 15.3441Z" fill="#FFB518"/>
        <path fill-rule="evenodd" clip-rule="evenodd" d="M9.91379 15.3441L16.0405 19.0922L14.4147 12.0281L19.8276 7.27515L12.6996 6.66218L9.91379 0L7.12802 6.66218L0 7.27515L5.41293 12.0281L3.78707 19.0922L9.91379 15.3441Z" fill="#FFB518"/>
    </symbol>

    <symbol id="four-and-half-stars" viewBox="0 0 115 20" xmlns="http://www.w3.org/2000/svg">
        <path fill-rule="evenodd" clip-rule="evenodd" d="M114.828 7.27515L107.7 6.65214L104.914 0L102.128 6.66218L95 7.27515L100.413 12.0281L98.7871 19.0922L104.914 15.3441L111.041 19.0922L109.425 12.0281L114.828 7.27515V7.27515ZM104.914 13.4651V4.11992L106.609 8.17953L110.951 8.56138L107.66 11.4554L108.651 15.7561L104.914 13.4651V13.4651Z" fill="#FFB518"/>
        <path fill-rule="evenodd" clip-rule="evenodd" d="M57.5 15.3441L63.6267 19.0922L62.0008 12.0281L67.4138 7.27515L60.2857 6.66218L57.5 0L54.7142 6.66218L47.5862 7.27515L52.9991 12.0281L51.3733 19.0922L57.5 15.3441Z" fill="#FFB518"/>
        <path fill-rule="evenodd" clip-rule="evenodd" d="M80.9138 15.3441L87.0405 19.0922L85.4147 12.0281L90.8276 7.27515L83.6996 6.66218L80.9138 0L78.128 6.66218L71 7.27515L76.4129 12.0281L74.7871 19.0922L80.9138 15.3441Z" fill="#FFB518"/>
        <path fill-rule="evenodd" clip-rule="evenodd" d="M33.7069 15.3441L39.8337 19.0922L38.2078 12.0281L43.6207 7.27515L36.4927 6.66218L33.7069 0L30.9212 6.66218L23.7932 7.27515L29.2061 12.0281L27.5802 19.0922L33.7069 15.3441Z" fill="#FFB518"/>
        <path fill-rule="evenodd" clip-rule="evenodd" d="M9.91379 15.3441L16.0405 19.0922L14.4147 12.0281L19.8276 7.27515L12.6996 6.66218L9.91379 0L7.12802 6.66218L0 7.27515L5.41293 12.0281L3.78707 19.0922L9.91379 15.3441Z" fill="#FFB518"/>
    </symbol>

    <symbol id="prev-icon-disabled" viewBox="0 0 24 24" xmlns="http://www.w3.org/2000/svg">
        <path fill-rule="evenodd" clip-rule="evenodd" d="M7.85981 8.11673C7.6729 7.96109 7.36985 7.96109 7.18293 8.11673L2.14019 12.3158L2.084 12.3719C1.95329 12.53 1.97541 12.7488 2.14834 12.8861L7.19108 16.8899L7.25866 16.9347C7.44823 17.0386 7.70562 17.0181 7.86777 16.8765L7.92156 16.8202C8.04631 16.6624 8.02172 16.448 7.85166 16.313L3.67891 13H22.5238L22.6094 12.9919C22.8315 12.9496 23 12.7455 23 12.5C23 12.2239 22.7868 12 22.5238 12H3.87229L7.85981 8.68037L7.91519 8.62517C8.04442 8.46984 8.02596 8.25508 7.85981 8.11673Z" fill="#E8E4EB"/>
    </symbol>

    <symbol id="prev-icon-abled" viewBox="0 0 24 24" fill="none" xmlns="http://www.w3.org/2000/svg">
        <path fill-rule="evenodd" clip-rule="evenodd" d="M7.85981 8.11673C7.6729 7.96109 7.36985 7.96109 7.18293 8.11673L2.14019 12.3158L2.084 12.3719C1.95329 12.53 1.97541 12.7488 2.14834 12.8861L7.19108 16.8899L7.25866 16.9347C7.44823 17.0386 7.70562 17.0181 7.86777 16.8765L7.92156 16.8202C8.04631 16.6624 8.02172 16.448 7.85166 16.313L3.67891 13H22.5238L22.6094 12.9919C22.8315 12.9496 23 12.7455 23 12.5C23 12.2239 22.7868 12 22.5238 12H3.87229L7.85981 8.68037L7.91519 8.62517C8.04442 8.46984 8.02596 8.25508 7.85981 8.11673Z" fill="#D22833"/>
    </symbol>

    <symbol id="next-icon-disabled" viewBox="0 0 24 24" fill="none" xmlns="http://www.w3.org/2000/svg">
        <path fill-rule="evenodd" clip-rule="evenodd" d="M16.1402 8.11673C16.3271 7.96109 16.6302 7.96109 16.8171 8.11673L21.8598 12.3158L21.916 12.3719C22.0467 12.53 22.0246 12.7488 21.8517 12.8861L16.8089 16.8899L16.7413 16.9347C16.5518 17.0386 16.2944 17.0181 16.1322 16.8765L16.0784 16.8202C15.9537 16.6624 15.9783 16.448 16.1483 16.313L20.3211 13H1.97619L1.89059 12.9919C1.66845 12.9496 1.5 12.7455 1.5 12.5C1.5 12.2239 1.7132 12 1.97619 12H20.1277L16.1402 8.68037L16.0848 8.62517C15.9556 8.46984 15.974 8.25508 16.1402 8.11673Z" fill="#E8E4EB"/>
    </symbol>

    <symbol id="next-icon-abled" viewBox="0 0 24 24" fill="none" xmlns="http://www.w3.org/2000/svg">
        <path fill-rule="evenodd" clip-rule="evenodd" d="M16.1402 8.11673C16.3271 7.96109 16.6302 7.96109 16.8171 8.11673L21.8598 12.3158L21.916 12.3719C22.0467 12.53 22.0246 12.7488 21.8517 12.8861L16.8089 16.8899L16.7413 16.9347C16.5518 17.0386 16.2944 17.0181 16.1322 16.8765L16.0784 16.8202C15.9537 16.6624 15.9783 16.448 16.1483 16.313L20.3211 13H1.97619L1.89059 12.9919C1.66845 12.9496 1.5 12.7455 1.5 12.5C1.5 12.2239 1.7132 12 1.97619 12H20.1277L16.1402 8.68037L16.0848 8.62517C15.9556 8.46984 15.974 8.25508 16.1402 8.11673Z" fill="#D22833"/>
    </symbol>

    <symbol id="prev-disabled-icon" viewBox="0 0 7 12" xmlns="http://www.w3.org/2000/svg">
        <path fill-rule="evenodd" clip-rule="evenodd" d="M0.677771 5.77797C0.677771 5.95801 0.751903 6.12745 0.878986 6.25454L5.62343 10.999C5.75051 11.1261 5.91996 11.2002 6.09999 11.2002C6.47065 11.2002 6.77777 10.8931 6.77777 10.5224L6.77777 1.03353C6.77777 0.662868 6.47065 0.355751 6.09999 0.355751C5.91996 0.355751 5.75051 0.429883 5.62343 0.556967L0.878986 5.30141C0.751903 5.42849 0.677771 5.59794 0.677771 5.77797Z" fill="#E8E4EB"/>
    </symbol>

    <symbol id="next-abled-icon" width="7" height="11" viewBox="0 0 7 11" fill="none" xmlns="http://www.w3.org/2000/svg">
        <path fill-rule="evenodd" clip-rule="evenodd" d="M6.70004 5.42222C6.70004 5.24219 6.6259 5.07274 6.49882 4.94566L1.75438 0.201215C1.62729 0.074132 1.45785 0 1.27781 0C0.907155 0 0.600037 0.307118 0.600037 0.677778V10.1667C0.600037 10.5373 0.907155 10.8444 1.27781 10.8444C1.45785 10.8444 1.62729 10.7703 1.75438 10.6432L6.49882 5.89878C6.6259 5.7717 6.70004 5.60226 6.70004 5.42222Z" fill="#29033E"/>
    </symbol>

    <symbol id="home-active-icon" viewBox="0 0 18 18" fill="none" xmlns="http://www.w3.org/2000/svg">
        <g clip-path="url(#clip0)">
        <path opacity="0.3" d="M1.98213 7.94268L8.76888 2.33043C8.83384 2.27665 8.91554 2.24722 8.99988 2.24722C9.08422 2.24722 9.16591 2.27665 9.23088 2.33043L16.0176 7.94268C16.1294 8.03554 16.2587 8.10501 16.3978 8.147C16.537 8.18898 16.6831 8.20261 16.8276 8.18708C16.9721 8.17156 17.112 8.12719 17.239 8.05661C17.366 7.98603 17.4776 7.89067 17.5671 7.77618C17.7512 7.54286 17.8371 7.24699 17.8065 6.95139C17.776 6.65578 17.6315 6.38371 17.4036 6.19293L10.6169 0.580678C10.1616 0.205295 9.58994 0 8.99988 0C8.40981 0 7.83814 0.205295 7.38288 0.580678L0.599877 6.19293C0.372022 6.38371 0.227491 6.65578 0.196964 6.95139C0.166437 7.24699 0.252318 7.54286 0.436377 7.77618C0.525982 7.88994 0.637406 7.98467 0.764112 8.05479C0.890817 8.12491 1.03025 8.16902 1.17423 8.18453C1.31822 8.20004 1.46385 8.18663 1.60258 8.1451C1.74131 8.10357 1.87035 8.03475 1.98213 7.94268Z" fill="#D22833"/>
        <path d="M16.7109 16.4998V11.2498C16.7046 11.0242 16.6527 10.8022 16.5582 10.5972C16.4637 10.3923 16.3286 10.2086 16.1611 10.0573L9.93613 4.80732C9.67467 4.58618 9.34331 4.46484 9.00088 4.46484C8.65844 4.46484 8.32708 4.58618 8.06563 4.80732L1.84063 10.0618C1.67334 10.2124 1.53826 10.3953 1.44353 10.5995C1.34879 10.8036 1.29635 11.0249 1.28938 11.2498V16.4998C1.28558 16.8934 1.43807 17.2723 1.71338 17.5535C1.9887 17.8348 2.36435 17.9953 2.75788 17.9998H6.79738C6.99417 17.9976 7.18205 17.9174 7.31973 17.7768C7.45741 17.6362 7.53363 17.4466 7.53163 17.2498V13.1248C7.52983 12.9281 7.6061 12.7387 7.74374 12.5981C7.88138 12.4575 8.06914 12.3772 8.26588 12.3748H9.73438C9.93111 12.3772 10.1189 12.4575 10.2565 12.5981C10.3941 12.7387 10.4704 12.9281 10.4686 13.1248V17.2498C10.4666 17.4466 10.5428 17.6362 10.6805 17.7768C10.8182 17.9174 11.0061 17.9976 11.2029 17.9998H15.2424C15.6359 17.9953 16.0116 17.8348 16.2869 17.5535C16.5622 17.2723 16.7147 16.8934 16.7109 16.4998Z" fill="#D22833"/>
        </g>
        <defs>
        <clipPath id="clip0">
        <rect width="18" height="18" fill="white"/>
        </clipPath>
        </defs>
    </symbol>

    <symbol id="home-disable-icon" viewBox="0 0 18 18" fill="none" xmlns="http://www.w3.org/2000/svg">
        <g clip-path="url(#clip0)">
        <path opacity="0.3" d="M1.98213 7.94268L8.76888 2.33043C8.83384 2.27665 8.91554 2.24722 8.99988 2.24722C9.08422 2.24722 9.16591 2.27665 9.23088 2.33043L16.0176 7.94268C16.1294 8.03554 16.2587 8.10501 16.3978 8.147C16.537 8.18898 16.6831 8.20261 16.8276 8.18708C16.9721 8.17156 17.112 8.12719 17.239 8.05661C17.366 7.98603 17.4776 7.89067 17.5671 7.77618C17.7512 7.54286 17.8371 7.24699 17.8065 6.95139C17.776 6.65578 17.6315 6.38371 17.4036 6.19293L10.6169 0.580678C10.1616 0.205295 9.58994 0 8.99988 0C8.40981 0 7.83814 0.205295 7.38288 0.580678L0.599877 6.19293C0.372022 6.38371 0.227491 6.65578 0.196964 6.95139C0.166437 7.24699 0.252318 7.54286 0.436377 7.77618C0.525982 7.88994 0.637406 7.98467 0.764112 8.05479C0.890817 8.12491 1.03025 8.16902 1.17423 8.18453C1.31822 8.20004 1.46385 8.18663 1.60258 8.1451C1.74131 8.10357 1.87035 8.03475 1.98213 7.94268Z" fill="#29033E"/>
        <path opacity="0.6" d="M16.7109 16.4998V11.2498C16.7046 11.0242 16.6527 10.8022 16.5582 10.5972C16.4637 10.3923 16.3286 10.2086 16.1611 10.0573L9.93613 4.80732C9.67467 4.58618 9.34331 4.46484 9.00088 4.46484C8.65844 4.46484 8.32708 4.58618 8.06563 4.80732L1.84063 10.0618C1.67334 10.2124 1.53826 10.3953 1.44353 10.5995C1.34879 10.8036 1.29635 11.0249 1.28938 11.2498V16.4998C1.28558 16.8934 1.43807 17.2723 1.71338 17.5535C1.9887 17.8348 2.36435 17.9953 2.75788 17.9998H6.79738C6.99417 17.9976 7.18205 17.9174 7.31973 17.7768C7.45741 17.6362 7.53363 17.4466 7.53163 17.2498V13.1248C7.52983 12.9281 7.6061 12.7387 7.74374 12.5981C7.88138 12.4575 8.06914 12.3772 8.26588 12.3748H9.73438C9.93111 12.3772 10.1189 12.4575 10.2565 12.5981C10.3941 12.7387 10.4704 12.9281 10.4686 13.1248V17.2498C10.4666 17.4466 10.5428 17.6362 10.6805 17.7768C10.8182 17.9174 11.0061 17.9976 11.2029 17.9998H15.2424C15.6359 17.9953 16.0116 17.8348 16.2869 17.5535C16.5622 17.2723 16.7147 16.8934 16.7109 16.4998Z" fill="#29033E"/>
        </g>
        <defs>
        <clipPath id="clip0">
        <rect width="18" height="18" fill="white"/>
        </clipPath>
        </defs>
    </symbol>

    <svg id="home-white-icon" viewBox="0 0 18 18" fill="none" xmlns="http://www.w3.org/2000/svg">
        <g clip-path="url(#clip0)">
        <path opacity="0.3" d="M1.98213 7.94268L8.76888 2.33043C8.83384 2.27665 8.91554 2.24722 8.99988 2.24722C9.08422 2.24722 9.16591 2.27665 9.23088 2.33043L16.0176 7.94268C16.1294 8.03554 16.2587 8.10501 16.3978 8.147C16.537 8.18898 16.6831 8.20261 16.8276 8.18708C16.9721 8.17156 17.112 8.12719 17.239 8.05661C17.366 7.98603 17.4776 7.89067 17.5671 7.77618C17.7512 7.54286 17.8371 7.24699 17.8065 6.95139C17.776 6.65578 17.6315 6.38371 17.4036 6.19293L10.6169 0.580678C10.1616 0.205295 9.58994 0 8.99988 0C8.40981 0 7.83814 0.205295 7.38288 0.580678L0.599877 6.19293C0.372022 6.38371 0.227491 6.65578 0.196964 6.95139C0.166437 7.24699 0.252318 7.54286 0.436377 7.77618C0.525982 7.88994 0.637406 7.98467 0.764111 8.05479C0.890817 8.12491 1.03025 8.16902 1.17423 8.18453C1.31822 8.20004 1.46385 8.18663 1.60258 8.1451C1.74131 8.10357 1.87035 8.03475 1.98213 7.94268V7.94268Z" fill="white"/>
        <path opacity="0.6" d="M16.7109 16.4998V11.2498C16.7046 11.0242 16.6527 10.8022 16.5582 10.5972C16.4637 10.3923 16.3286 10.2086 16.1611 10.0573L9.93613 4.80732C9.67467 4.58618 9.34331 4.46484 9.00088 4.46484C8.65844 4.46484 8.32708 4.58618 8.06563 4.80732L1.84063 10.0618C1.67334 10.2124 1.53826 10.3953 1.44353 10.5995C1.34879 10.8036 1.29635 11.0249 1.28938 11.2498V16.4998C1.28558 16.8934 1.43807 17.2723 1.71338 17.5535C1.9887 17.8348 2.36435 17.9953 2.75788 17.9998H6.79738C6.99417 17.9976 7.18205 17.9174 7.31973 17.7768C7.45741 17.6362 7.53363 17.4466 7.53163 17.2498V13.1248C7.52983 12.9281 7.6061 12.7387 7.74374 12.5981C7.88138 12.4575 8.06914 12.3772 8.26588 12.3748H9.73438C9.93111 12.3772 10.1189 12.4575 10.2565 12.5981C10.3941 12.7387 10.4704 12.9281 10.4686 13.1248V17.2498C10.4666 17.4466 10.5428 17.6362 10.6805 17.7768C10.8182 17.9174 11.0061 17.9976 11.2029 17.9998H15.2424C15.6359 17.9953 16.0116 17.8348 16.2869 17.5535C16.5622 17.2723 16.7147 16.8934 16.7109 16.4998Z" fill="white"/>
        </g>
        <defs>
        <clipPath id="clip0">
        <rect width="18" height="18" fill="white"/>
        </clipPath>
        </defs>
    </svg>


    <symbol id="order-active-icon" viewBox="0 0 20 20" fill="none" xmlns="http://www.w3.org/2000/svg">
        <path d="M16.8016 20C17.2494 20 17.692 19.9048 18.1002 19.7206C18.5083 19.5365 18.8726 19.2677 19.169 18.932C19.4653 18.5964 19.6869 18.2015 19.8189 17.7737C19.951 17.3459 19.9906 16.8948 19.9351 16.4505L18.6079 5.81642V5.81053C18.603 5.77513 18.5951 5.7402 18.5844 5.70611V5.69768L18.5802 5.68337L17.7002 3.21263C17.6904 3.18634 17.6788 3.16074 17.6656 3.136C17.5482 2.89388 17.3659 2.68905 17.139 2.54427C16.9122 2.39948 16.6497 2.32039 16.3806 2.31579H15.5385C15.371 2.31579 15.2103 2.38233 15.0919 2.50077C14.9734 2.61922 14.9069 2.77986 14.9069 2.94737C14.9069 3.11487 14.9734 3.27552 15.0919 3.39396C15.2103 3.51241 15.371 3.57895 15.5385 3.57895H16.3806C16.4114 3.5839 16.4406 3.5961 16.4658 3.61454C16.491 3.63299 16.5114 3.65716 16.5254 3.68505L16.9861 4.98189C16.9972 5.0137 17.0006 5.04771 16.9959 5.08109C16.9912 5.11446 16.9786 5.14624 16.9592 5.17377C16.9398 5.20129 16.914 5.22376 16.8841 5.23931C16.8542 5.25486 16.821 5.26304 16.7873 5.26316H14.4875C14.4317 5.26316 14.3781 5.24098 14.3387 5.2015C14.2992 5.16201 14.277 5.10847 14.277 5.05263V4.21053C14.277 3.09383 13.8334 2.02286 13.0438 1.23323C12.2541 0.443608 11.1832 0 10.0665 0C8.94978 0 7.87881 0.443608 7.08919 1.23323C6.29956 2.02286 5.85595 3.09383 5.85595 4.21053V5.05263C5.85595 5.10847 5.83377 5.16201 5.79429 5.2015C5.75481 5.24098 5.70126 5.26316 5.64542 5.26316H3.25216C3.2174 5.26324 3.18315 5.25471 3.15249 5.23833C3.12182 5.22195 3.09569 5.19823 3.07642 5.16929C3.05716 5.14035 3.04536 5.10709 3.04208 5.07248C3.0388 5.03787 3.04415 5.00299 3.05764 4.97095L3.59069 3.71284C3.60378 3.67876 3.62534 3.64859 3.65333 3.62516C3.68133 3.60173 3.71484 3.58583 3.75069 3.57895H4.59279C4.7603 3.57895 4.92094 3.51241 5.03939 3.39396C5.15783 3.27552 5.22437 3.11487 5.22437 2.94737C5.22437 2.77986 5.15783 2.61922 5.03939 2.50077C4.92094 2.38233 4.7603 2.31579 4.59279 2.31579H3.75069C3.47436 2.3231 3.20564 2.40789 2.97516 2.5605C2.74469 2.71311 2.56172 2.9274 2.44711 3.17895L1.40037 5.64632V5.65305C1.39448 5.66653 1.38942 5.68084 1.38437 5.696V5.70779C1.3735 5.74266 1.36588 5.77846 1.36164 5.81474L0.0243723 16.4505C-0.0311671 16.895 0.00847242 17.3461 0.140659 17.7741C0.272846 18.202 0.494555 18.597 0.791068 18.9327C1.08758 19.2684 1.45211 19.5371 1.86046 19.7212C2.26881 19.9052 2.71163 20.0002 3.15953 20H16.8016ZM7.22521 12.3259C7.25196 12.2991 7.28373 12.2779 7.3187 12.2634C7.35366 12.2489 7.39115 12.2414 7.429 12.2414C7.46686 12.2414 7.50434 12.2489 7.53931 12.2634C7.57428 12.2779 7.60604 12.2991 7.63279 12.3259L8.90353 13.5419C8.94299 13.5803 8.99586 13.6017 9.0509 13.6017C9.10594 13.6017 9.15881 13.5803 9.19827 13.5419L12.9684 9.77263C12.9951 9.74584 13.0269 9.7246 13.0619 9.7101C13.0968 9.6956 13.1343 9.68814 13.1722 9.68814C13.21 9.68814 13.2475 9.6956 13.2825 9.7101C13.3174 9.7246 13.3492 9.74584 13.3759 9.77263L14.4117 10.8076C14.4656 10.8617 14.4959 10.935 14.4959 11.0114C14.4959 11.0878 14.4656 11.161 14.4117 11.2152L9.25637 16.3672C9.20224 16.4211 9.12897 16.4513 9.05258 16.4513C8.9762 16.4513 8.90292 16.4211 8.84879 16.3672L6.19111 13.7693C6.13732 13.7147 6.10716 13.6412 6.10716 13.5646C6.10716 13.488 6.13732 13.4145 6.19111 13.36L7.22521 12.3259ZM7.53848 4.21053C7.53848 3.54051 7.80464 2.89793 8.27842 2.42415C8.75219 1.95038 9.39477 1.68421 10.0648 1.68421C10.7348 1.68421 11.3774 1.95038 11.8512 2.42415C12.3249 2.89793 12.5911 3.54051 12.5911 4.21053V5.05263C12.5911 5.10847 12.5689 5.16201 12.5294 5.2015C12.49 5.24098 12.4364 5.26316 12.3806 5.26316H7.749C7.69317 5.26316 7.63962 5.24098 7.60014 5.2015C7.56066 5.16201 7.53848 5.10847 7.53848 5.05263V4.21053Z" fill="#D22833"/>
    </symbol>

    <symbol id="order-disable-icon" viewBox="0 0 20 20" fill="none" xmlns="http://www.w3.org/2000/svg">
        <path opacity="0.6" d="M16.8016 20C17.2494 20 17.692 19.9048 18.1002 19.7206C18.5083 19.5365 18.8726 19.2677 19.169 18.932C19.4653 18.5964 19.6869 18.2015 19.8189 17.7737C19.951 17.3459 19.9906 16.8948 19.9351 16.4505L18.6079 5.81642V5.81053C18.603 5.77513 18.5951 5.7402 18.5844 5.70611V5.69768L18.5802 5.68337L17.7002 3.21263C17.6904 3.18634 17.6788 3.16074 17.6656 3.136C17.5482 2.89388 17.3659 2.68905 17.139 2.54427C16.9122 2.39948 16.6497 2.32039 16.3806 2.31579H15.5385C15.371 2.31579 15.2103 2.38233 15.0919 2.50077C14.9734 2.61922 14.9069 2.77986 14.9069 2.94737C14.9069 3.11487 14.9734 3.27552 15.0919 3.39396C15.2103 3.51241 15.371 3.57895 15.5385 3.57895H16.3806C16.4114 3.5839 16.4406 3.5961 16.4658 3.61454C16.491 3.63299 16.5114 3.65716 16.5254 3.68505L16.9861 4.98189C16.9972 5.0137 17.0006 5.04771 16.9959 5.08109C16.9912 5.11446 16.9786 5.14624 16.9592 5.17377C16.9398 5.20129 16.914 5.22376 16.8841 5.23931C16.8542 5.25486 16.821 5.26304 16.7873 5.26316H14.4875C14.4317 5.26316 14.3781 5.24098 14.3387 5.2015C14.2992 5.16201 14.277 5.10847 14.277 5.05263V4.21053C14.277 3.09383 13.8334 2.02286 13.0438 1.23323C12.2541 0.443608 11.1832 0 10.0665 0C8.94978 0 7.87881 0.443608 7.08919 1.23323C6.29956 2.02286 5.85595 3.09383 5.85595 4.21053V5.05263C5.85595 5.10847 5.83377 5.16201 5.79429 5.2015C5.75481 5.24098 5.70126 5.26316 5.64542 5.26316H3.25216C3.2174 5.26324 3.18315 5.25471 3.15249 5.23833C3.12182 5.22195 3.09569 5.19823 3.07642 5.16929C3.05716 5.14035 3.04536 5.10709 3.04208 5.07248C3.0388 5.03787 3.04415 5.00299 3.05764 4.97095L3.59069 3.71284C3.60378 3.67876 3.62534 3.64859 3.65333 3.62516C3.68133 3.60173 3.71484 3.58583 3.75069 3.57895H4.59279C4.7603 3.57895 4.92094 3.51241 5.03939 3.39396C5.15783 3.27552 5.22437 3.11487 5.22437 2.94737C5.22437 2.77986 5.15783 2.61922 5.03939 2.50077C4.92094 2.38233 4.7603 2.31579 4.59279 2.31579H3.75069C3.47436 2.3231 3.20564 2.40789 2.97516 2.5605C2.74469 2.71311 2.56172 2.9274 2.44711 3.17895L1.40037 5.64632V5.65305C1.39448 5.66653 1.38942 5.68084 1.38437 5.696V5.70779C1.3735 5.74266 1.36588 5.77846 1.36164 5.81474L0.0243723 16.4505C-0.0311671 16.895 0.00847242 17.3461 0.140659 17.7741C0.272846 18.202 0.494555 18.597 0.791068 18.9327C1.08758 19.2684 1.45211 19.5371 1.86046 19.7212C2.26881 19.9052 2.71163 20.0002 3.15953 20H16.8016ZM7.22521 12.3259C7.25196 12.2991 7.28373 12.2779 7.3187 12.2634C7.35366 12.2489 7.39115 12.2414 7.429 12.2414C7.46686 12.2414 7.50434 12.2489 7.53931 12.2634C7.57428 12.2779 7.60604 12.2991 7.63279 12.3259L8.90353 13.5419C8.94299 13.5803 8.99586 13.6017 9.0509 13.6017C9.10594 13.6017 9.15881 13.5803 9.19827 13.5419L12.9684 9.77263C12.9951 9.74584 13.0269 9.7246 13.0619 9.7101C13.0968 9.6956 13.1343 9.68814 13.1722 9.68814C13.21 9.68814 13.2475 9.6956 13.2825 9.7101C13.3174 9.7246 13.3492 9.74584 13.3759 9.77263L14.4117 10.8076C14.4656 10.8617 14.4959 10.935 14.4959 11.0114C14.4959 11.0878 14.4656 11.161 14.4117 11.2152L9.25637 16.3672C9.20224 16.4211 9.12897 16.4513 9.05258 16.4513C8.9762 16.4513 8.90292 16.4211 8.84879 16.3672L6.19111 13.7693C6.13732 13.7147 6.10716 13.6412 6.10716 13.5646C6.10716 13.488 6.13732 13.4145 6.19111 13.36L7.22521 12.3259ZM7.53848 4.21053C7.53848 3.54051 7.80464 2.89793 8.27842 2.42415C8.75219 1.95038 9.39477 1.68421 10.0648 1.68421C10.7348 1.68421 11.3774 1.95038 11.8512 2.42415C12.3249 2.89793 12.5911 3.54051 12.5911 4.21053V5.05263C12.5911 5.10847 12.5689 5.16201 12.5294 5.2015C12.49 5.24098 12.4364 5.26316 12.3806 5.26316H7.749C7.69317 5.26316 7.63962 5.24098 7.60014 5.2015C7.56066 5.16201 7.53848 5.10847 7.53848 5.05263V4.21053Z" fill="#29033E"/>
    </symbol>

    <symbol id="order-white-icon" viewBox="0 0 20 20" fill="none" xmlns="http://www.w3.org/2000/svg">
        <path opacity="0.6" d="M16.8016 20C17.2494 20 17.692 19.9048 18.1002 19.7206C18.5083 19.5365 18.8726 19.2677 19.169 18.932C19.4653 18.5964 19.6869 18.2015 19.8189 17.7737C19.951 17.3459 19.9906 16.8948 19.9351 16.4505L18.6079 5.81642V5.81053C18.603 5.77513 18.5951 5.7402 18.5844 5.70611V5.69768L18.5802 5.68337L17.7002 3.21263C17.6904 3.18634 17.6788 3.16074 17.6656 3.136C17.5482 2.89388 17.3659 2.68905 17.139 2.54427C16.9122 2.39948 16.6497 2.32039 16.3806 2.31579H15.5385C15.371 2.31579 15.2103 2.38233 15.0919 2.50077C14.9734 2.61922 14.9069 2.77986 14.9069 2.94737C14.9069 3.11487 14.9734 3.27552 15.0919 3.39396C15.2103 3.51241 15.371 3.57895 15.5385 3.57895H16.3806C16.4114 3.5839 16.4406 3.5961 16.4658 3.61454C16.491 3.63299 16.5114 3.65716 16.5254 3.68505L16.9861 4.98189C16.9972 5.0137 17.0006 5.04771 16.9959 5.08109C16.9912 5.11446 16.9786 5.14624 16.9592 5.17376C16.9398 5.20129 16.914 5.22376 16.8841 5.23931C16.8542 5.25486 16.821 5.26304 16.7873 5.26316H14.4875C14.4317 5.26316 14.3781 5.24098 14.3387 5.2015C14.2992 5.16202 14.277 5.10847 14.277 5.05263V4.21053C14.277 3.09383 13.8334 2.02286 13.0438 1.23323C12.2541 0.443608 11.1832 0 10.0665 0C8.94978 0 7.87881 0.443608 7.08919 1.23323C6.29956 2.02286 5.85595 3.09383 5.85595 4.21053V5.05263C5.85595 5.10847 5.83377 5.16202 5.79429 5.2015C5.75481 5.24098 5.70126 5.26316 5.64542 5.26316H3.25216C3.2174 5.26324 3.18315 5.25471 3.15249 5.23833C3.12182 5.22195 3.09569 5.19823 3.07642 5.16929C3.05716 5.14035 3.04536 5.10709 3.04208 5.07248C3.0388 5.03787 3.04415 5.00299 3.05764 4.97095L3.59069 3.71284C3.60378 3.67876 3.62534 3.64859 3.65333 3.62516C3.68133 3.60173 3.71484 3.58583 3.75069 3.57895H4.59279C4.7603 3.57895 4.92094 3.51241 5.03939 3.39396C5.15783 3.27552 5.22437 3.11487 5.22437 2.94737C5.22437 2.77986 5.15783 2.61922 5.03939 2.50077C4.92094 2.38233 4.7603 2.31579 4.59279 2.31579H3.75069C3.47436 2.3231 3.20564 2.40789 2.97516 2.5605C2.74469 2.71311 2.56172 2.9274 2.44711 3.17895L1.40037 5.64632V5.65305C1.39448 5.66653 1.38942 5.68084 1.38437 5.696V5.70779C1.3735 5.74266 1.36588 5.77846 1.36164 5.81474L0.0243723 16.4505C-0.0311671 16.895 0.00847243 17.3461 0.140659 17.7741C0.272846 18.202 0.494555 18.597 0.791068 18.9327C1.08758 19.2684 1.45211 19.5371 1.86046 19.7212C2.26881 19.9052 2.71163 20.0002 3.15953 20H16.8016ZM7.22521 12.3259C7.25196 12.2991 7.28373 12.2779 7.3187 12.2634C7.35366 12.2489 7.39115 12.2414 7.429 12.2414C7.46686 12.2414 7.50434 12.2489 7.53931 12.2634C7.57428 12.2779 7.60604 12.2991 7.63279 12.3259L8.90353 13.5419C8.94299 13.5803 8.99586 13.6017 9.0509 13.6017C9.10594 13.6017 9.15881 13.5803 9.19827 13.5419L12.9684 9.77263C12.9951 9.74585 13.0269 9.7246 13.0619 9.7101C13.0968 9.6956 13.1343 9.68814 13.1722 9.68814C13.21 9.68814 13.2475 9.6956 13.2825 9.7101C13.3174 9.7246 13.3492 9.74585 13.3759 9.77263L14.4117 10.8076C14.4656 10.8617 14.4959 10.935 14.4959 11.0114C14.4959 11.0878 14.4656 11.161 14.4117 11.2152L9.25637 16.3672C9.20224 16.4211 9.12897 16.4513 9.05258 16.4513C8.9762 16.4513 8.90292 16.4211 8.84879 16.3672L6.19111 13.7693C6.13732 13.7147 6.10716 13.6412 6.10716 13.5646C6.10716 13.488 6.13732 13.4145 6.19111 13.36L7.22521 12.3259ZM7.53848 4.21053C7.53848 3.54051 7.80464 2.89793 8.27842 2.42415C8.75219 1.95038 9.39477 1.68421 10.0648 1.68421C10.7348 1.68421 11.3774 1.95038 11.8512 2.42415C12.3249 2.89793 12.5911 3.54051 12.5911 4.21053V5.05263C12.5911 5.10847 12.5689 5.16202 12.5294 5.2015C12.49 5.24098 12.4364 5.26316 12.3806 5.26316H7.749C7.69317 5.26316 7.63962 5.24098 7.60014 5.2015C7.56066 5.16202 7.53848 5.10847 7.53848 5.05263V4.21053Z" fill="white"/>
    </symbol>


    <symbol id="notification-icon" viewBox="0 0 24 24" fill="none" xmlns="http://www.w3.org/2000/svg">
        <path d="M20.5 17.4998V10.9998C20.4981 9.26643 19.9663 7.57509 18.9759 6.15253C17.9856 4.72997 16.5839 3.6442 14.959 3.04079C14.8446 2.33798 14.4839 1.69878 13.9414 1.23751C13.3989 0.776232 12.7101 0.522949 11.998 0.522949C11.2859 0.522949 10.5971 0.776232 10.0546 1.23751C9.51215 1.69878 9.15144 2.33798 9.037 3.04079C7.41225 3.644 6.01093 4.72984 5.02118 6.15254C4.03142 7.57523 3.50061 9.26668 3.5 10.9998V17.4998C3.5 18.2954 3.18393 19.0585 2.62132 19.6211C2.05871 20.1837 1.29565 20.4998 0.5 20.4998H23.5C22.7044 20.4998 21.9413 20.1837 21.3787 19.6211C20.8161 19.0585 20.5 18.2954 20.5 17.4998Z" stroke="#543565" stroke-linecap="round" stroke-linejoin="round"/>
        <path d="M15 20.5C15 21.2956 14.6839 22.0587 14.1213 22.6213C13.5587 23.1839 12.7956 23.5 12 23.5C11.2044 23.5 10.4413 23.1839 9.87868 22.6213C9.31607 22.0587 9 21.2956 9 20.5" stroke="#543565" stroke-linecap="round" stroke-linejoin="round"/>
    </symbol>

    <symbol id="notification-white-icon" viewBox="0 0 24 24" fill="none" xmlns="http://www.w3.org/2000/svg">
        <path d="M20.5 17.4998V10.9998C20.4981 9.26643 19.9663 7.57509 18.9759 6.15253C17.9856 4.72997 16.5839 3.6442 14.959 3.04079C14.8446 2.33798 14.4839 1.69878 13.9414 1.23751C13.3989 0.776232 12.7101 0.522949 11.998 0.522949C11.2859 0.522949 10.5971 0.776232 10.0546 1.23751C9.51215 1.69878 9.15144 2.33798 9.037 3.04079C7.41225 3.644 6.01093 4.72984 5.02118 6.15254C4.03142 7.57523 3.50061 9.26668 3.5 10.9998V17.4998C3.5 18.2954 3.18393 19.0585 2.62132 19.6211C2.05871 20.1837 1.29565 20.4998 0.5 20.4998H23.5C22.7044 20.4998 21.9413 20.1837 21.3787 19.6211C20.8161 19.0585 20.5 18.2954 20.5 17.4998Z" stroke="white" stroke-linecap="round" stroke-linejoin="round"/>
        <path d="M15 20.5C15 21.2956 14.6839 22.0587 14.1213 22.6213C13.5587 23.1839 12.7956 23.5 12 23.5C11.2044 23.5 10.4413 23.1839 9.87868 22.6213C9.31607 22.0587 9 21.2956 9 20.5" stroke="white" stroke-linecap="round" stroke-linejoin="round"/>
    </symbol>


    <symbol fill="currentColor" id="menu-icon" viewBox="0 0 18 18">
        <path opacity="1" d="M0 15H18V13H0V15ZM0 10H18V8H0V10ZM0 3V5H18V3H0Z" fill=""/>
    </symbol>
</svg>