<svg width="56" height="56" viewBox="0 0 56 56" fill="none" xmlns="http://www.w3.org/2000/svg">
<rect opacity="0.1" width="56" height="56" rx="28" fill="#E61773"/>
<path d="M34.75 25.75H21.25C20.4216 25.75 19.75 26.4216 19.75 27.25V37.75C19.75 38.5784 20.4216 39.25 21.25 39.25H34.75C35.5784 39.25 36.25 38.5784 36.25 37.75V27.25C36.25 26.4216 35.5784 25.75 34.75 25.75Z" stroke="#E61773" stroke-width="1.5" stroke-linecap="round" stroke-linejoin="round"/>
<path d="M22.75 25.75V22C22.75 20.6076 23.3031 19.2723 24.2877 18.2877C25.2723 17.3031 26.6076 16.75 28 16.75C29.3924 16.75 30.7277 17.3031 31.7123 18.2877C32.6969 19.2723 33.25 20.6076 33.25 22V25.75" stroke="#E61773" stroke-width="1.5" stroke-linecap="round" stroke-linejoin="round"/>
<path d="M28 31.75C27.9258 31.75 27.8533 31.772 27.7917 31.8132C27.73 31.8544 27.6819 31.913 27.6535 31.9815C27.6252 32.05 27.6177 32.1254 27.6322 32.1982C27.6467 32.2709 27.6824 32.3377 27.7348 32.3902C27.7873 32.4426 27.8541 32.4783 27.9268 32.4928C27.9996 32.5073 28.075 32.4998 28.1435 32.4715C28.212 32.4431 28.2706 32.395 28.3118 32.3333C28.353 32.2717 28.375 32.1992 28.375 32.125C28.3751 32.0757 28.3655 32.0269 28.3467 31.9813C28.3279 31.9358 28.3003 31.8944 28.2655 31.8595C28.2306 31.8247 28.1892 31.7971 28.1437 31.7783C28.0981 31.7595 28.0493 31.7499 28 31.75V31.75Z" stroke="#E61773" stroke-width="1.5" stroke-linecap="round" stroke-linejoin="round"/>
</svg>
