<svg width="56" height="56" viewBox="0 0 56 56" fill="none" xmlns="http://www.w3.org/2000/svg">
<circle opacity="0.1" cx="28" cy="28" r="28" fill="#E61773"/>
<path d="M19.75 39.25C21.4069 39.25 22.75 37.9069 22.75 36.25C22.75 34.5931 21.4069 33.25 19.75 33.25C18.0931 33.25 16.75 34.5931 16.75 36.25C16.75 37.9069 18.0931 39.25 19.75 39.25Z" stroke="#E61773" stroke-width="1.5" stroke-linecap="round" stroke-linejoin="round"/>
<path d="M22.75 36.25H30.25V38.5" stroke="#E61773" stroke-width="1.5" stroke-linecap="round" stroke-linejoin="round"/>
<path d="M27.25 36.25V37.75" stroke="#E61773" stroke-width="1.5" stroke-linecap="round" stroke-linejoin="round"/>
<path d="M22.75 31V27.25C22.75 26.8522 22.908 26.4706 23.1893 26.1893C23.4706 25.908 23.8522 25.75 24.25 25.75H37.75C38.1478 25.75 38.5294 25.908 38.8107 26.1893C39.092 26.4706 39.25 26.8522 39.25 27.25V37.75C39.25 38.1478 39.092 38.5294 38.8107 38.8107C38.5294 39.092 38.1478 39.25 37.75 39.25H33.25" stroke="#E61773" stroke-width="1.5" stroke-linecap="round" stroke-linejoin="round"/>
<path d="M25.75 25.75V22C25.75 20.6076 26.3031 19.2723 27.2877 18.2877C28.2723 17.3031 29.6076 16.75 31 16.75C32.3924 16.75 33.7277 17.3031 34.7123 18.2877C35.6969 19.2723 36.25 20.6076 36.25 22V25.75" stroke="#E61773" stroke-width="1.5" stroke-linecap="round" stroke-linejoin="round"/>
<path d="M28.9138 33.343C28.7597 32.9623 28.7128 32.5467 28.7782 32.1412C28.8435 31.7357 29.0186 31.3558 29.2844 31.0428C29.5502 30.7297 29.8967 30.4954 30.2862 30.3652C30.6757 30.235 31.0935 30.2139 31.4941 30.3041C31.8948 30.3944 32.2631 30.5927 32.5591 30.8773C32.8551 31.162 33.0676 31.5223 33.1735 31.9191C33.2793 32.3159 33.2746 32.7342 33.1597 33.1285C33.0448 33.5228 32.8242 33.8781 32.5218 34.156" stroke="#E61773" stroke-width="1.5" stroke-linecap="round" stroke-linejoin="round"/>
</svg>
