<svg width="56" height="56" viewBox="0 0 56 56" fill="none" xmlns="http://www.w3.org/2000/svg">
<circle opacity="0.1" cx="28" cy="28" r="28" fill="#E61773"/>
<path d="M33.5 39.5C36.8137 39.5 39.5 36.8137 39.5 33.5C39.5 30.1863 36.8137 27.5 33.5 27.5C30.1863 27.5 27.5 30.1863 27.5 33.5C27.5 36.8137 30.1863 39.5 33.5 39.5Z" stroke="#E61773" stroke-linecap="round" stroke-linejoin="round"/>
<path d="M33.5 30.5V36.5" stroke="#E61773" stroke-linecap="round" stroke-linejoin="round"/>
<path d="M36.5 33.5H30.5" stroke="#E61773" stroke-linecap="round" stroke-linejoin="round"/>
<path d="M25 32.5H16.5C16.5134 31.3575 16.7513 30.2288 17.2 29.178C17.69 28.197 19.739 27.517 22.311 26.565C23.006 26.307 22.892 24.491 22.584 24.152C22.0926 23.621 21.7192 22.992 21.4882 22.3064C21.2573 21.6208 21.174 20.8941 21.244 20.174C21.1999 19.7156 21.2507 19.2529 21.3933 18.815C21.5358 18.377 21.767 17.9731 22.0725 17.6284C22.3779 17.2838 22.7511 17.0057 23.1688 16.8115C23.5864 16.6174 24.0396 16.5113 24.5 16.5C24.9604 16.5113 25.4136 16.6174 25.8312 16.8115C26.2489 17.0057 26.6221 17.2838 26.9275 17.6284C27.233 17.9731 27.4642 18.377 27.6067 18.815C27.7493 19.2529 27.8001 19.7156 27.756 20.174C27.8265 20.8938 27.7439 21.6203 27.5136 22.3059C27.2834 22.9915 26.9107 23.6207 26.42 24.152C26.112 24.491 25.998 26.307 26.693 26.565L28 27.046" stroke="#E61773" stroke-linecap="round" stroke-linejoin="round"/>
</svg>
