<svg width="30" height="30" viewBox="0 0 30 30" fill="none" xmlns="http://www.w3.org/2000/svg">
<path d="M10.5358 22.8702L6.0601 25.3115C5.79746 25.4547 5.56142 25.6307 5.3418 25.8226C7.95123 28.0228 11.3197 29.3502 15.0001 29.3502C18.6533 29.3502 22.0003 28.0426 24.6024 25.8724C24.3624 25.6698 24.102 25.4875 23.8133 25.3437L19.0207 22.9477C18.4014 22.6381 18.0103 22.0053 18.0103 21.313V19.4326C18.145 19.2792 18.299 19.0822 18.4637 18.8496C19.1169 17.927 19.611 16.912 19.9535 15.8473C20.5682 15.6577 21.021 15.09 21.021 14.4153V12.4081C21.021 11.9666 20.8246 11.572 20.5195 11.2958V8.39431C20.5195 8.39431 21.1156 3.87903 15.0007 3.87903C8.88576 3.87903 9.4818 8.39431 9.4818 8.39431V11.2958C9.17614 11.572 8.98029 11.9666 8.98029 12.4081V14.4153C8.98029 14.9439 9.25821 15.4092 9.67425 15.6781C10.1758 17.8613 11.489 19.4326 11.489 19.4326V21.2666C11.4884 21.9345 11.1227 22.5498 10.5358 22.8702Z" fill="#E7ECED"/>
<path d="M15.2564 0.00229471C6.97356 -0.139215 0.143745 6.46079 0.00223516 14.7436C-0.0781422 19.44 2.01507 23.661 5.3479 26.468C5.56582 26.2778 5.79959 26.1034 6.05941 25.9619L10.5351 23.5206C11.122 23.2002 11.4877 22.5849 11.4877 21.9159V20.0819C11.4877 20.0819 10.1739 18.5106 9.67299 16.3274C9.25752 16.0585 8.97903 15.5938 8.97903 15.0646V13.0574C8.97903 12.6159 9.17544 12.2214 9.48054 11.9451V9.04362C9.48054 9.04362 8.8845 4.52833 14.9994 4.52833C21.1143 4.52833 20.5183 9.04362 20.5183 9.04362V11.9451C20.8239 12.2214 21.0198 12.6159 21.0198 13.0574V15.0646C21.0198 15.7393 20.567 16.307 19.9522 16.4966C19.6098 17.5613 19.1156 18.5763 18.4624 19.4989C18.2977 19.7315 18.1437 19.9285 18.009 20.0819V21.9623C18.009 22.6546 18.4002 23.288 19.0194 23.597L23.812 25.993C24.0996 26.1368 24.3594 26.3185 24.5988 26.5206C27.8309 23.8251 29.919 19.7949 29.9966 15.2564C30.1392 6.97361 23.5398 0.143804 15.2564 0.00229471Z" fill="#737A91"/>
</svg>
